<?xml version="1.0" encoding="UTF-8"?>
<svg width="328px" height="116px" viewBox="0 0 328 116" version="1.1" xmlns="http://www.w3.org/2000/svg" xmlns:xlink="http://www.w3.org/1999/xlink">
    <title>Joe Marzullo Logo</title>
    <defs>
        <path d="M22.4852494,2.2622108 L24.0300375,2.2622108 L24.0300375,30.9357326 C24.0300375,33.7446444 23.5008046,36.1246787 22.4423386,38.0758355 C21.3838727,40.0269923 19.9487455,41.5021422 18.1369569,42.5012853 C16.3251684,43.5004284 14.2845223,44 12.0150188,44 C9.5738721,44 7.45217236,43.5664096 5.64991954,42.6992288 C3.84766673,41.832048 2.45545027,40.517138 1.47327016,38.7544987 C0.491090053,36.9918595 0,34.7720651 0,32.0951157 L1.54478813,32.0951157 C1.54478813,35.4318766 2.42207521,37.9957155 4.17664938,39.7866324 C5.93122355,41.5775493 8.54401335,42.4730077 12.0150188,42.4730077 C13.9221646,42.4730077 15.6672031,42.0394173 17.2501341,41.1722365 C18.8330651,40.3050557 20.1013171,39.0137104 21.05489,37.2982005 C22.008463,35.5826907 22.4852494,33.461868 22.4852494,30.9357326 L22.4852494,2.2622108 Z" id="path-1"></path>
        <filter x="-29.1%" y="-12.0%" width="158.3%" height="133.5%" filterUnits="objectBoundingBox" id="filter-2">
            <feOffset dx="0" dy="2" in="SourceAlpha" result="shadowOffsetOuter1"></feOffset>
            <feGaussianBlur stdDeviation="2" in="shadowOffsetOuter1" result="shadowBlurOuter1"></feGaussianBlur>
            <feColorMatrix values="0 0 0 0 0   0 0 0 0 0   0 0 0 0 0  0 0 0 0.5 0" type="matrix" in="shadowBlurOuter1"></feColorMatrix>
        </filter>
        <path d="M32.183086,27.5424165 C32.183086,24.5449871 32.7552298,21.9010283 33.8995173,19.6105398 C35.0438048,17.3200514 36.6315037,15.5244216 38.662614,14.2236504 C40.6937243,12.9228792 43.0442815,12.2724936 45.7142857,12.2724936 C48.4224328,12.2724936 50.7920615,12.9228792 52.8231718,14.2236504 C54.8542821,15.5244216 56.4372132,17.3200514 57.571965,19.6105398 C58.7067167,21.9010283 59.2740926,24.5449871 59.2740926,27.5424165 L59.2740926,28.7300771 C59.2740926,31.7086547 58.7067167,34.3479006 57.571965,36.6478149 C56.4372132,38.9477292 54.85905,40.748072 52.8374754,42.0488432 C50.8159008,43.3496144 48.4605757,44 45.7715001,44 C43.0824245,44 40.7175636,43.3496144 38.6769176,42.0488432 C36.6362715,40.748072 35.0438048,38.9477292 33.8995173,36.6478149 C32.7552298,34.3479006 32.183086,31.7086547 32.183086,28.7300771 L32.183086,27.5424165 Z M33.7278741,28.7300771 C33.7278741,31.1619537 34.2046606,33.4241645 35.1582335,35.5167095 C36.1118064,37.6092545 37.4849514,39.2917738 39.2776685,40.5642674 C41.0703856,41.8367609 43.2349961,42.4730077 45.7715001,42.4730077 C48.2889326,42.4730077 50.4392395,41.8367609 52.2224209,40.5642674 C54.0056022,39.2917738 55.3692115,37.6092545 56.3132487,35.5167095 C57.2572859,33.4241645 57.7293045,31.1619537 57.7293045,28.7300771 L57.7293045,27.5424165 C57.7293045,25.1482434 57.252518,22.9095973 56.2989451,20.8264781 C55.3453722,18.743359 53.9769951,17.0514139 52.1938137,15.7506427 C50.4106323,14.4498715 48.2507897,13.7994859 45.7142857,13.7994859 C43.1968532,13.7994859 41.0465463,14.4498715 39.2633649,15.7506427 C37.4801836,17.0514139 36.1118064,18.743359 35.1582335,20.8264781 C34.2046606,22.9095973 33.7278741,25.1482434 33.7278741,27.5424165 L33.7278741,28.7300771 Z" id="path-3"></path>
        <filter x="-25.8%" y="-15.8%" width="151.7%" height="144.1%" filterUnits="objectBoundingBox" id="filter-4">
            <feOffset dx="0" dy="2" in="SourceAlpha" result="shadowOffsetOuter1"></feOffset>
            <feGaussianBlur stdDeviation="2" in="shadowOffsetOuter1" result="shadowBlurOuter1"></feGaussianBlur>
            <feColorMatrix values="0 0 0 0 0   0 0 0 0 0   0 0 0 0 0  0 0 0 0.5 0" type="matrix" in="shadowBlurOuter1"></feColorMatrix>
        </filter>
        <path d="M77.8973717,44 C75.3990107,44 73.1199714,43.3496144 71.0602539,42.0488432 C69.0005364,40.748072 67.3651588,38.9524422 66.1541212,36.6619537 C64.9430836,34.3714653 64.3375648,31.7463582 64.3375648,28.7866324 L64.3375648,27.5424165 C64.3375648,24.5638389 64.9240122,21.924593 66.0969068,19.6246787 C67.2698015,17.3247644 68.838429,15.5244216 70.8027892,14.2236504 C72.7671494,12.9228792 74.9412957,12.2724936 77.325228,12.2724936 C79.613803,12.2724936 81.6449133,12.8191945 83.4185589,13.9125964 C85.1922045,15.0059983 86.5796531,16.5329906 87.5809047,18.4935733 C88.5821563,20.454156 89.082782,22.7352185 89.082782,25.3367609 L89.082782,27.1182519 L65.3388164,27.1182519 L65.3388164,25.5912596 L87.5379939,25.5912596 L87.5379939,25.2236504 C87.5379939,23.1688089 87.1184218,21.2789203 86.2792777,19.5539846 C85.4401335,17.8290488 84.2577031,16.4387318 82.7319864,15.3830334 C81.2062697,14.327335 79.4040169,13.7994859 77.325228,13.7994859 C75.0557244,13.7994859 73.0579892,14.4168809 71.3320222,15.651671 C69.6060552,16.886461 68.2662852,18.5454156 67.3127123,20.6285347 C66.3591394,22.7116538 65.8823529,25.0162811 65.8823529,27.5424165 L65.8823529,28.7866324 C65.8823529,31.3316195 66.4115859,33.6409597 67.4700519,35.714653 C68.5285178,37.7883462 69.963645,39.4378749 71.7754336,40.6632391 C73.5872221,41.8886033 75.6278682,42.5012853 77.8973717,42.5012853 C79.6710173,42.5012853 81.3254664,42.2090831 82.8607188,41.6246787 C84.3959712,41.0402742 85.8024912,39.9280206 87.0802789,38.2879177 L88.167352,39.0514139 C87.1374933,40.5029991 85.7881876,41.6906598 84.119435,42.6143959 C82.4506824,43.538132 80.3766613,44 77.8973717,44 Z" id="path-5"></path>
        <filter x="-28.3%" y="-15.8%" width="156.6%" height="144.1%" filterUnits="objectBoundingBox" id="filter-6">
            <feOffset dx="0" dy="2" in="SourceAlpha" result="shadowOffsetOuter1"></feOffset>
            <feGaussianBlur stdDeviation="2" in="shadowOffsetOuter1" result="shadowBlurOuter1"></feGaussianBlur>
            <feColorMatrix values="0 0 0 0 0   0 0 0 0 0   0 0 0 0 0  0 0 0 0.5 0" type="matrix" in="shadowBlurOuter1"></feColorMatrix>
        </filter>
        <path d="M113.31307,2.2622108 L130.448775,41.2005141 L147.641695,2.2622108 L149.358126,2.2622108 L131.078133,43.4344473 L129.848024,43.4344473 L111.568031,2.2622108 L113.31307,2.2622108 Z M112.655105,2.2622108 L112.655105,23.5552699 L112.655105,43.4344473 L111.110316,43.4344473 L111.110316,2.2622108 L112.655105,2.2622108 Z M149.901663,2.2622108 L149.901663,43.4344473 L148.356875,43.4344473 L148.356875,23.5552699 L148.356875,2.2622108 L149.901663,2.2622108 Z" id="path-7"></path>
        <filter x="-18.0%" y="-12.1%" width="136.1%" height="134.0%" filterUnits="objectBoundingBox" id="filter-8">
            <feOffset dx="0" dy="2" in="SourceAlpha" result="shadowOffsetOuter1"></feOffset>
            <feGaussianBlur stdDeviation="2" in="shadowOffsetOuter1" result="shadowBlurOuter1"></feGaussianBlur>
            <feColorMatrix values="0 0 0 0 0   0 0 0 0 0   0 0 0 0 0  0 0 0 0.5 0" type="matrix" in="shadowBlurOuter1"></feColorMatrix>
        </filter>
        <path d="M179.967817,21.8868895 C179.967817,19.3419023 179.147744,17.3577549 177.507599,15.9344473 C175.867453,14.5111397 173.540735,13.7994859 170.527445,13.7994859 C168.658442,13.7994859 166.975386,14.1246787 165.478276,14.7750643 C163.981167,15.4254499 162.798737,16.3161954 161.930985,17.4473008 C161.063234,18.5784062 160.629358,19.8508997 160.629358,21.2647815 L159.08457,21.2082262 C159.08457,19.6058269 159.57566,18.1306769 160.55784,16.7827763 C161.54002,15.4348757 162.894094,14.3461868 164.620061,13.5167095 C166.346028,12.6872322 168.315156,12.2724936 170.527445,12.2724936 C172.68252,12.2724936 174.584898,12.6306769 176.234579,13.3470437 C177.88426,14.0634105 179.176351,15.1379606 180.110853,16.5706941 C181.045354,18.0034276 181.512605,19.7943445 181.512605,21.9434447 L181.512605,37.2699229 C181.512605,38.3633248 181.584123,39.4661525 181.727159,40.5784062 C181.870195,41.6906598 182.065677,42.5578406 182.313606,43.1799486 L182.313606,43.4344473 L180.539961,43.4344473 C180.349246,42.6992288 180.20621,41.8084833 180.110853,40.7622108 C180.015496,39.7159383 179.967817,38.6932305 179.967817,37.6940874 L179.967817,21.8868895 Z M180.711604,27.9100257 L172.644377,27.9100257 C168.658442,27.9100257 165.521187,28.6452442 163.232612,30.1156812 C160.944037,31.5861183 159.79975,33.4807198 159.79975,35.7994859 C159.79975,37.646958 160.543537,39.2257926 162.03111,40.5359897 C163.518684,41.8461868 165.435366,42.5012853 167.781155,42.5012853 C169.955301,42.5012853 171.881519,42.1478149 173.559807,41.440874 C175.238095,40.7339332 176.658919,39.739503 177.822278,38.4575835 C178.985637,37.1756641 179.87246,35.6580977 180.482746,33.9048843 L181.169319,35.3187661 C180.806961,36.3744644 180.268192,37.416024 179.553013,38.4434447 C178.837833,39.4708655 177.927171,40.4040274 176.821026,41.2429306 C175.714882,42.0818338 174.413255,42.7510711 172.916145,43.2506427 C171.419036,43.7502142 169.707372,44 167.781155,44 C165.854938,44 164.176649,43.6465296 162.74629,42.9395887 C161.315931,42.2326478 160.209786,41.2523565 159.427856,39.9987147 C158.645926,38.7450728 158.254962,37.3076264 158.254962,35.6863753 C158.254962,32.9528706 159.518446,30.7142245 162.045414,28.970437 C164.572382,27.2266495 168.076763,26.3547558 172.558555,26.3547558 L180.654389,26.3547558 L180.711604,27.9100257 Z" id="path-9"></path>
        <filter x="-29.1%" y="-15.8%" width="158.2%" height="144.1%" filterUnits="objectBoundingBox" id="filter-10">
            <feOffset dx="0" dy="2" in="SourceAlpha" result="shadowOffsetOuter1"></feOffset>
            <feGaussianBlur stdDeviation="2" in="shadowOffsetOuter1" result="shadowBlurOuter1"></feGaussianBlur>
            <feColorMatrix values="0 0 0 0 0   0 0 0 0 0   0 0 0 0 0  0 0 0 0.5 0" type="matrix" in="shadowBlurOuter1"></feColorMatrix>
        </filter>
        <path d="M193.012694,43.4344473 L191.467906,43.4344473 L191.467906,12.8380463 L193.012694,12.8380463 L193.012694,18.1542416 L193.012694,43.4344473 Z M205.113535,13.940874 C204.808391,13.9031705 204.488945,13.865467 204.155194,13.8277635 C203.821443,13.79006 203.473389,13.7712082 203.111032,13.7712082 C200.803385,13.7712082 198.877168,14.3744644 197.33238,15.5809769 C195.787592,16.7874893 194.629001,18.3946015 193.856606,20.4023136 C193.084212,22.4100257 192.698015,24.6203942 192.698015,27.033419 L191.668157,27.1182519 C191.668157,24.2527849 192.087729,21.7030848 192.926873,19.4691517 C193.766017,17.2352185 195.029501,15.4772922 196.717325,14.1953728 C198.405149,12.9134533 200.536385,12.2724936 203.111032,12.2724936 C203.587818,12.2724936 204.00739,12.3007712 204.369748,12.3573265 C204.732106,12.4138817 205.037249,12.4892888 205.285178,12.5835476 L205.113535,13.940874 Z" id="path-11"></path>
        <filter x="-50.7%" y="-16.0%" width="201.3%" height="144.9%" filterUnits="objectBoundingBox" id="filter-12">
            <feOffset dx="0" dy="2" in="SourceAlpha" result="shadowOffsetOuter1"></feOffset>
            <feGaussianBlur stdDeviation="2" in="shadowOffsetOuter1" result="shadowBlurOuter1"></feGaussianBlur>
            <feColorMatrix values="0 0 0 0 0   0 0 0 0 0   0 0 0 0 0  0 0 0 0.5 0" type="matrix" in="shadowBlurOuter1"></feColorMatrix>
        </filter>
        <path d="M232.748078,43.4344473 L209.061327,43.4344473 L209.061327,41.907455 L232.748078,41.907455 L232.748078,43.4344473 Z M209.604863,43.4344473 L208.632219,43.4344473 L208.632219,42.1902314 L230.116217,12.8380463 L231.060254,12.8380463 L231.060254,14.1953728 L209.604863,43.4344473 Z M230.345074,14.3933162 L209.519042,14.3933162 L209.519042,12.8380463 L230.345074,12.8380463 L230.345074,14.3933162 Z" id="path-13"></path>
        <filter x="-29.0%" y="-16.3%" width="158.1%" height="145.8%" filterUnits="objectBoundingBox" id="filter-14">
            <feOffset dx="0" dy="2" in="SourceAlpha" result="shadowOffsetOuter1"></feOffset>
            <feGaussianBlur stdDeviation="2" in="shadowOffsetOuter1" result="shadowBlurOuter1"></feGaussianBlur>
            <feColorMatrix values="0 0 0 0 0   0 0 0 0 0   0 0 0 0 0  0 0 0 0.5 0" type="matrix" in="shadowBlurOuter1"></feColorMatrix>
        </filter>
        <path d="M259.78187,12.8380463 L261.355266,12.8380463 L261.355266,43.4344473 L259.78187,43.4344473 L259.78187,36.3650386 L259.78187,12.8380463 Z M261.355266,31.4164524 C261.355266,33.8294773 260.926158,35.9832905 260.067942,37.877892 C259.209726,39.7724936 257.879492,41.2664953 256.077239,42.3598972 C254.274987,43.4532991 251.953037,44 249.111389,44 C246.079027,44 243.623577,43.1092545 241.745038,41.3277635 C239.8665,39.5462725 238.92723,36.5252785 238.92723,32.2647815 L238.92723,12.8380463 L240.472019,12.8380463 L240.472019,32.3213368 C240.472019,34.8097686 240.843912,36.798629 241.587699,38.2879177 C242.331486,39.7772065 243.351809,40.8470437 244.648668,41.4974293 C245.945527,42.1478149 247.414029,42.4730077 249.054175,42.4730077 C251.838608,42.4730077 254.031825,41.9451585 255.633828,40.8894602 C257.235831,39.8337618 258.370582,38.4622965 259.038083,36.7750643 C259.705584,35.087832 260.039335,33.3204799 260.039335,31.4730077 L261.355266,31.4164524 Z" id="path-15"></path>
        <filter x="-31.2%" y="-16.0%" width="162.4%" height="144.9%" filterUnits="objectBoundingBox" id="filter-16">
            <feOffset dx="0" dy="2" in="SourceAlpha" result="shadowOffsetOuter1"></feOffset>
            <feGaussianBlur stdDeviation="2" in="shadowOffsetOuter1" result="shadowBlurOuter1"></feGaussianBlur>
            <feColorMatrix values="0 0 0 0 0   0 0 0 0 0   0 0 0 0 0  0 0 0 0.5 0" type="matrix" in="shadowBlurOuter1"></feColorMatrix>
        </filter>
        <polygon id="path-17" points="273.026998 43.4344473 271.48221 43.4344473 271.48221 0 273.026998 0"></polygon>
        <filter x="-453.1%" y="-11.5%" width="1006.3%" height="132.2%" filterUnits="objectBoundingBox" id="filter-18">
            <feOffset dx="0" dy="2" in="SourceAlpha" result="shadowOffsetOuter1"></feOffset>
            <feGaussianBlur stdDeviation="2" in="shadowOffsetOuter1" result="shadowBlurOuter1"></feGaussianBlur>
            <feColorMatrix values="0 0 0 0 0   0 0 0 0 0   0 0 0 0 0  0 0 0 0.5 0" type="matrix" in="shadowBlurOuter1"></feColorMatrix>
        </filter>
        <polygon id="path-19" points="285.099231 43.4344473 283.554443 43.4344473 283.554443 0 285.099231 0"></polygon>
        <filter x="-453.1%" y="-11.5%" width="1006.3%" height="132.2%" filterUnits="objectBoundingBox" id="filter-20">
            <feOffset dx="0" dy="2" in="SourceAlpha" result="shadowOffsetOuter1"></feOffset>
            <feGaussianBlur stdDeviation="2" in="shadowOffsetOuter1" result="shadowBlurOuter1"></feGaussianBlur>
            <feColorMatrix values="0 0 0 0 0   0 0 0 0 0   0 0 0 0 0  0 0 0 0.5 0" type="matrix" in="shadowBlurOuter1"></feColorMatrix>
        </filter>
        <path d="M292.908993,27.5424165 C292.908993,24.5449871 293.481137,21.9010283 294.625425,19.6105398 C295.769712,17.3200514 297.357411,15.5244216 299.388521,14.2236504 C301.419632,12.9228792 303.770189,12.2724936 306.440193,12.2724936 C309.14834,12.2724936 311.517969,12.9228792 313.549079,14.2236504 C315.58019,15.5244216 317.163121,17.3200514 318.297872,19.6105398 C319.432624,21.9010283 320,24.5449871 320,27.5424165 L320,28.7300771 C320,31.7086547 319.432624,34.3479006 318.297872,36.6478149 C317.163121,38.9477292 315.584957,40.748072 313.563383,42.0488432 C311.541808,43.3496144 309.186483,44 306.497407,44 C303.808332,44 301.443471,43.3496144 299.402825,42.0488432 C297.362179,40.748072 295.769712,38.9477292 294.625425,36.6478149 C293.481137,34.3479006 292.908993,31.7086547 292.908993,28.7300771 L292.908993,27.5424165 Z M294.453782,28.7300771 C294.453782,31.1619537 294.930568,33.4241645 295.884141,35.5167095 C296.837714,37.6092545 298.210859,39.2917738 300.003576,40.5642674 C301.796293,41.8367609 303.960904,42.4730077 306.497407,42.4730077 C309.01484,42.4730077 311.165147,41.8367609 312.948328,40.5642674 C314.73151,39.2917738 316.095119,37.6092545 317.039156,35.5167095 C317.983193,33.4241645 318.455212,31.1619537 318.455212,28.7300771 L318.455212,27.5424165 C318.455212,25.1482434 317.978425,22.9095973 317.024852,20.8264781 C316.07128,18.743359 314.702902,17.0514139 312.919721,15.7506427 C311.13654,14.4498715 308.976697,13.7994859 306.440193,13.7994859 C303.922761,13.7994859 301.772454,14.4498715 299.989272,15.7506427 C298.206091,17.0514139 296.837714,18.743359 295.884141,20.8264781 C294.930568,22.9095973 294.453782,25.1482434 294.453782,27.5424165 L294.453782,28.7300771 Z" id="path-21"></path>
        <filter x="-25.8%" y="-15.8%" width="151.7%" height="144.1%" filterUnits="objectBoundingBox" id="filter-22">
            <feOffset dx="0" dy="2" in="SourceAlpha" result="shadowOffsetOuter1"></feOffset>
            <feGaussianBlur stdDeviation="2" in="shadowOffsetOuter1" result="shadowBlurOuter1"></feGaussianBlur>
            <feColorMatrix values="0 0 0 0 0   0 0 0 0 0   0 0 0 0 0  0 0 0 0.5 0" type="matrix" in="shadowBlurOuter1"></feColorMatrix>
        </filter>
    </defs>
    <g id="Home" stroke="none" stroke-width="1" fill="none" fill-rule="evenodd">
        <g transform="translate(-1534.000000, -53.000000)" id="Joe-Marzullo-Logo">
            <g transform="translate(1538.000000, 55.000000)">
                <rect id="Rectangle" fill="#FFC700" x="2" y="69" width="322" height="1"></rect>
                <rect id="Rectangle" fill="#FFC700" x="2" y="84" width="161" height="1"></rect>
                <rect id="Rectangle" fill="#FFC700" x="2" y="98" width="80" height="1"></rect>
                <rect id="Rectangle" fill="#FFC700" x="2" y="113" width="40" height="1"></rect>
                <g id="Joe-Marzullo" fill-rule="nonzero">
                    <g id="Path">
                        <use fill="black" fill-opacity="1" filter="url(#filter-2)" xlink:href="#path-1"></use>
                        <use fill="#FFFFFF" xlink:href="#path-1"></use>
                    </g>
                    <g id="Shape">
                        <use fill="black" fill-opacity="1" filter="url(#filter-4)" xlink:href="#path-3"></use>
                        <use fill="#FFFFFF" xlink:href="#path-3"></use>
                    </g>
                    <g id="Path">
                        <use fill="black" fill-opacity="1" filter="url(#filter-6)" xlink:href="#path-5"></use>
                        <use fill="#FFFFFF" xlink:href="#path-5"></use>
                    </g>
                    <g id="Shape">
                        <use fill="black" fill-opacity="1" filter="url(#filter-8)" xlink:href="#path-7"></use>
                        <use fill="#FFFFFF" xlink:href="#path-7"></use>
                    </g>
                    <g id="Shape">
                        <use fill="black" fill-opacity="1" filter="url(#filter-10)" xlink:href="#path-9"></use>
                        <use fill="#FFFFFF" xlink:href="#path-9"></use>
                    </g>
                    <g id="Shape">
                        <use fill="black" fill-opacity="1" filter="url(#filter-12)" xlink:href="#path-11"></use>
                        <use fill="#FFFFFF" xlink:href="#path-11"></use>
                    </g>
                    <g id="Shape">
                        <use fill="black" fill-opacity="1" filter="url(#filter-14)" xlink:href="#path-13"></use>
                        <use fill="#FFFFFF" xlink:href="#path-13"></use>
                    </g>
                    <g id="Shape">
                        <use fill="black" fill-opacity="1" filter="url(#filter-16)" xlink:href="#path-15"></use>
                        <use fill="#FFFFFF" xlink:href="#path-15"></use>
                    </g>
                    <g id="Path">
                        <use fill="black" fill-opacity="1" filter="url(#filter-18)" xlink:href="#path-17"></use>
                        <use fill="#FFFFFF" xlink:href="#path-17"></use>
                    </g>
                    <g id="Path">
                        <use fill="black" fill-opacity="1" filter="url(#filter-20)" xlink:href="#path-19"></use>
                        <use fill="#FFFFFF" xlink:href="#path-19"></use>
                    </g>
                    <g id="Shape">
                        <use fill="black" fill-opacity="1" filter="url(#filter-22)" xlink:href="#path-21"></use>
                        <use fill="#FFFFFF" xlink:href="#path-21"></use>
                    </g>
                </g>
            </g>
        </g>
    </g>
</svg>
