<?xml version="1.0" encoding="UTF-8"?>
<svg width="286px" height="265px" viewBox="0 0 286 265" version="1.1" xmlns="http://www.w3.org/2000/svg" xmlns:xlink="http://www.w3.org/1999/xlink">
    <title>Light</title>
    <defs>
        <filter x="-20.8%" y="-210.0%" width="141.6%" height="520.0%" filterUnits="objectBoundingBox" id="filter-1">
            <feGaussianBlur stdDeviation="14" in="SourceGraphic"></feGaussianBlur>
        </filter>
        <radialGradient cx="51.9347355%" cy="50%" fx="51.9347355%" fy="50%" r="1096.47207%" gradientTransform="translate(0.519347,0.500000),scale(0.790698,1.000000),rotate(27.879902),translate(-0.519347,-0.500000)" id="radialGradient-2">
            <stop stop-color="#FFFFFF" offset="0%"></stop>
            <stop stop-color="#F3FF00" offset="58.7169434%"></stop>
            <stop stop-color="#FFFFFF" offset="100%"></stop>
        </radialGradient>
        <filter x="-209.3%" y="-264.7%" width="518.6%" height="629.4%" filterUnits="objectBoundingBox" id="filter-3">
            <feGaussianBlur stdDeviation="30" in="SourceGraphic"></feGaussianBlur>
        </filter>
        <radialGradient cx="54.6358968%" cy="-2.35836786e-13%" fx="54.6358968%" fy="-2.35836786e-13%" r="17.5541584%" gradientTransform="translate(0.546359,-0.000000),scale(0.138889,1.000000),rotate(90.000000),scale(1.000000,23.760040),translate(-0.546359,0.000000)" id="radialGradient-4">
            <stop stop-color="#FFF204" offset="0%"></stop>
            <stop stop-color="#111111" offset="100%"></stop>
        </radialGradient>
        <radialGradient cx="54.6358968%" cy="-2.35836786e-13%" fx="54.6358968%" fy="-2.35836786e-13%" r="17.5541584%" gradientTransform="translate(0.546359,-0.000000),scale(0.147059,1.000000),rotate(90.000000),scale(1.000000,23.760040),translate(-0.546359,0.000000)" id="radialGradient-5">
            <stop stop-color="#FFF204" offset="0%"></stop>
            <stop stop-color="#111111" offset="100%"></stop>
        </radialGradient>
        <radialGradient cx="54.6358968%" cy="-2.35836786e-13%" fx="54.6358968%" fy="-2.35836786e-13%" r="17.5541584%" gradientTransform="translate(0.546359,-0.000000),scale(0.192308,1.000000),rotate(90.000000),scale(1.000000,23.760040),translate(-0.546359,0.000000)" id="radialGradient-6">
            <stop stop-color="#FFF204" offset="0%"></stop>
            <stop stop-color="#111111" offset="100%"></stop>
        </radialGradient>
        <radialGradient cx="54.6358968%" cy="-2.35836786e-13%" fx="54.6358968%" fy="-2.35836786e-13%" r="17.5541584%" gradientTransform="translate(0.546359,-0.000000),scale(0.333333,1.000000),rotate(90.000000),scale(1.000000,23.760040),translate(-0.546359,0.000000)" id="radialGradient-7">
            <stop stop-color="#FFF204" offset="0%"></stop>
            <stop stop-color="#111111" offset="100%"></stop>
        </radialGradient>
        <linearGradient x1="22.2254684%" y1="-29.0363401%" x2="64.6142724%" y2="93.772618%" id="linearGradient-8">
            <stop stop-color="#FFC700" offset="0%"></stop>
            <stop stop-color="#FFC700" offset="100%"></stop>
        </linearGradient>
        <path d="M52.8038735,30.6040543 C52.7868557,30.2666184 52.7900469,29.9199822 52.7467926,29.5750773 C52.7049569,29.2549994 52.8964041,28.8924282 52.3525421,28.5564335 C52.0256549,29.2652874 52.4238045,29.9440841 52.0983368,30.5767708 C51.8441315,29.9723647 52.1110997,29.3569907 52.0164389,28.7596547 C51.9221285,28.1683554 52.0905376,27.5465821 51.6672153,26.9750793 L51.6668607,26.9747252 C51.5257536,27.2781701 51.447399,27.6071038 51.4367618,27.9417026 C51.4328618,28.5832814 51.4835603,29.224842 51.4963241,29.8664118 C51.4977423,30.0809814 51.4761151,30.2951975 51.4310892,30.5051625 C51.3966987,30.6758248 51.2236806,30.7275183 50.9145282,30.6453778 C50.8826201,30.4825018 50.8617022,30.3178582 50.8517747,30.1521541 C50.8510657,29.7846248 50.8897104,29.4153279 50.8797829,29.04885 C50.8606376,28.2762652 50.8156116,27.5036622 50.78973,26.7311136 C50.7638484,25.9546312 50.7528581,25.1767709 50.7255588,24.4002341 C50.7209499,24.2586047 50.7237862,24.0946681 50.3465563,24.0312907 L50.3462017,24.0316447 C50.2838031,24.2232002 50.2409001,24.4204208 50.2182097,24.6204694 C50.215728,25.4366081 50.2214006,26.2527649 50.2518904,27.0689127 C50.2855711,28.0029867 50.3536433,28.9341602 50.3933515,29.8654243 L50.393706,29.8657784 C50.4011514,30.061585 50.3756245,30.2573825 50.3181896,30.4450403 C50.2891177,30.5402878 50.155454,30.6196002 49.983506,30.7916765 L49.9831515,30.7916765 C49.8906199,30.4160074 49.5353697,30.1656792 49.1496326,30.2042658 C49.058163,29.5747244 48.9741359,28.9950909 48.887277,28.4144331 C48.8631689,28.2650176 48.7972242,28.1403837 48.4189286,28.2186266 C48.5348585,30.5197753 48.4118379,32.8269064 48.0519792,35.1028565 C48.0292888,34.2137775 48.1065778,33.3250793 48.0842423,32.4374143 C48.0342526,30.4928544 47.945622,28.5482944 47.8470548,26.6037345 C47.8030926,26.0581102 47.7240274,25.5160209 47.6102213,24.9806845 C47.5900123,24.8656135 47.4531583,24.7625798 47.3616887,24.640774 C46.9681552,24.8259573 47.027005,25.0507877 47.0213324,25.2600456 C47.0092784,25.7472507 47.0092784,26.2323709 46.9915517,26.7177631 C46.9312805,28.4293711 46.8788076,30.1413416 46.786984,31.8514993 C46.7642936,32.2473545 46.8724279,32.6651634 46.5278141,33.0354755 L46.5455407,33.0475138 L46.5214326,33.0620311 L46.5260416,33.0365378 L46.5281688,33.0354757 L46.2048303,32.8223201 C45.7839957,33.3116462 45.9151736,33.8052506 45.8410757,34.27333 C45.766977,34.741772 45.7205352,35.2151993 45.6623842,35.6860887 C45.5248258,35.6198768 45.4868874,35.551185 45.4897283,35.4849704 C45.5212825,34.8065635 45.5531906,34.1264162 45.5967998,33.4479548 C45.6467895,32.6912959 45.722305,31.9346733 45.7627212,31.1765369 C45.820511,30.0902736 45.8722705,29.0031946 45.8963859,27.9158436 C45.920494,26.846893 45.8956768,25.7783051 45.9109223,24.7093546 C45.9300675,23.5621793 45.9768661,22.4156386 45.9977839,21.2677382 L45.9970749,21.2677382 C46.0002657,20.8980878 45.9825385,20.5284374 45.9442489,20.1608989 C45.9360945,20.0684886 45.8396642,19.9781993 45.7106102,19.7678808 L45.7102557,19.7678808 C45.6134674,19.9226081 45.5383077,20.0900888 45.4876082,20.2653557 C45.4489637,20.826208 45.4209547,21.3885106 45.4184733,21.9507679 C45.4145733,22.5711091 45.4659816,23.1903988 45.4528638,23.8107581 C45.4319459,24.933913 45.3773473,26.0556177 45.3450843,27.1786819 C45.3145938,28.2674832 45.3000583,29.3561939 45.2702767,30.4460829 C45.2493589,31.1999046 45.2146144,31.9541071 45.1841239,32.7107026 C45.1600158,33.3324578 45.1568246,33.9527808 45.1036437,34.5731401 C45.0135909,35.6367427 44.8919875,36.6989857 44.7827831,37.7608661 L44.7352748,38.0862556 C44.6597584,37.713061 44.6700399,37.3427036 44.6147343,36.9776941 C44.5615534,36.6218487 44.8207179,36.2171467 44.2516876,35.8584369 L43.9127472,36.1030999 C43.919129,34.9137758 43.9159381,33.708861 43.9368554,32.5035838 C43.9560006,31.4930978 44.0357674,30.4821587 44.028325,29.4716728 C44.0201706,28.1488318 43.9542262,26.8246312 43.9109701,25.5032404 L43.9106156,25.5032404 C43.8368718,24.8446661 43.8166591,24.1811246 43.8510533,23.518979 C43.8889889,22.7378918 43.8088636,21.9557533 43.6135118,21.198342 C43.5950763,21.0924712 43.4341123,20.9972238 43.2352172,20.7883284 L42.7002226,21.7804138 C42.4619732,21.3650885 42.6445603,20.9582565 42.193945,20.6626068 C41.7965087,20.8251294 41.8670578,21.0503133 41.8883323,21.252492 C41.9461221,22.5756956 41.8865596,23.9017091 41.7103577,25.2142168 C41.7174485,25.3739022 41.6834124,25.5321736 41.6114457,25.67451 C41.3256917,26.2410275 41.2083368,26.8773399 41.2735672,27.5082138 C41.2519405,27.9968329 41.3083117,28.4857964 41.4409136,28.9564138 C41.5167849,29.4358326 41.5252938,29.9233912 41.4664403,30.4048857 L41.4710493,32.3388405 C41.0285862,31.7886115 41.175012,31.1933874 41.030002,30.6244226 C40.8842842,30.0515329 41.0622651,29.441806 40.5421581,28.7658826 L40.5425126,28.7662367 C40.4464323,28.9152988 40.3673698,29.0753468 40.3074581,29.2424649 C40.2574683,29.5717521 40.2503771,29.9024532 40.2021564,30.232103 C40.1869111,30.3418623 40.1369214,30.5150082 40.0372969,30.5376689 C39.563993,30.6488514 39.6742502,30.9030682 39.648011,31.1222424 C39.6231932,31.319463 39.6898467,31.5350932 39.3806907,31.7149648 L38.8687405,31.04293 L38.345799,31.6221919 L37.3435179,30.8843051 L36.9042496,31.1066609 C36.7287529,30.9030682 36.8996406,30.5762555 36.3440777,30.4795941 C36.2635975,30.5628014 36.1299346,30.6463587 36.0994478,30.7426667 C35.9973409,31.0634606 35.9165086,31.3902641 35.8572957,31.7216995 C35.6541438,32.8993308 35.4821959,34.0802251 35.2595484,35.2564061 L35.2591939,35.2564061 C35.2315397,35.6540288 35.0904317,36.0353722 34.8525363,36.35545 C34.8036103,36.2655151 34.780565,36.1638946 34.7858827,36.0619214 C34.8043191,34.5645024 34.8291361,33.067174 34.8390636,31.569755 L34.8390636,31.5694009 C34.8372909,31.2574627 34.805028,30.9465851 34.7422754,30.6410373 C34.7245487,30.548627 34.574929,30.4664774 34.4863003,30.3804393 L34.2771218,30.389645 C33.7605609,32.4758796 33.6655425,34.6041725 32.9589902,36.6730037 L32.9593447,36.6730037 C32.9097099,36.5097742 32.8937549,36.3384049 32.9118364,36.1691567 C32.9706899,35.45074 33.0348639,34.7337373 33.0961915,34.0156651 C33.3213258,31.3728836 33.4163351,28.7282894 33.4067689,26.08016 C33.403578,25.4782374 33.4922128,24.876333 33.4911491,24.2758245 L33.4911491,24.2754703 C33.479095,23.8651032 33.4280416,23.4564945 33.3386967,23.0556902 C33.3177789,22.9459308 33.1511468,22.8492694 33.0515177,22.7462266 C32.7625689,23.930928 32.5494968,25.1326702 32.4133543,26.3442925 C32.3701009,25.6630575 32.3892453,24.9839254 32.3747098,24.3059172 C32.3360653,22.1496157 32.2942296,19.9936768 32.2346646,17.8373752 C32.2041741,16.7684247 32.1300799,15.7009245 32.070513,14.6323365 C32.0609404,14.4684 32.1460294,14.2669373 31.6794573,14.1918669 C31.3809331,14.7396213 31.6567669,15.2990687 31.6262764,15.8440132 L31.626631,15.8440132 C31.6209584,16.4084096 31.6440037,16.9724254 31.695766,17.5346827 C31.7216476,18.0983721 31.7376017,18.6617352 31.764901,19.2253521 C31.7907826,19.7890416 31.8269447,20.3509544 31.8563706,20.914662 C31.886861,21.4741003 31.9127417,22.032469 31.9418145,22.6064192 C31.5248736,22.5720737 31.3309431,22.6538652 31.3125094,22.8684312 C31.302228,23.0242281 31.3001005,23.1803694 31.3061278,23.3365197 C31.3788079,25.5554554 31.2763471,27.7769291 31.0001612,29.9800023 C30.8891869,30.8014527 30.7378055,31.6204557 30.586415,32.5622344 C30.4786356,32.3982978 30.4222635,32.3519159 30.4222635,32.305534 C30.4552354,30.2448606 30.5172819,28.1823743 30.514795,26.1188004 L30.5151495,26.1184464 C30.480759,25.3589594 30.3992196,24.6019923 30.2705196,23.8523764 C30.260947,23.779437 30.1457223,23.710747 30.0638281,23.6247089 C29.634834,23.8668974 29.7305603,24.1512166 29.7195691,24.4157123 C29.6376712,26.4763857 29.5603822,28.5388719 29.4710364,30.5981857 L29.4706818,30.5985397 C29.4419639,30.7465413 29.3919742,30.8895847 29.3224862,31.0234278 C29.2352696,30.8389516 29.1909544,30.6371354 29.1930782,30.4331891 C29.1551425,29.8114339 29.1218158,29.1896606 29.067573,28.5664913 C29.0594186,28.4779732 28.9402979,28.3919314 28.8133677,28.2290554 C28.6974378,28.3972431 28.6024194,28.4790301 28.5882334,28.5664913 C28.4450024,29.4527332 28.3145325,30.337561 28.1833547,31.2029278 C27.9373089,30.8750546 28.2783731,30.4119243 27.6869973,30.0323667 L27.6866427,30.0323667 C27.5781553,30.1697449 27.4873936,30.3205836 27.4164815,30.480976 C27.3278473,30.8063655 27.2828168,31.1356617 27.2119138,31.4639065 L27.1101609,31.5233908 L26.6442994,31.1650708 L26.6442994,31.1647167 C26.5343961,31.3123648 26.4471742,31.4755944 26.3854835,31.6487312 C26.3170573,32.1515177 26.2897571,32.65822 26.2330311,33.1620127 C26.2089221,33.2625718 26.172405,33.3595868 26.1234818,33.4505831 C26.0071979,33.2739022 25.9281354,33.0752675 25.890905,32.8674236 C25.8402064,32.6928637 25.9834365,32.4715684 25.6406025,32.3476415 L25.6406025,32.3472875 C25.4246896,32.4609445 25.2981224,32.6921561 25.3186799,32.9346981 C25.2697539,33.7310132 25.2286271,34.5287424 25.1662276,35.3250394 C25.1548824,35.4691433 25.0931926,35.7191271 24.9925007,35.733639 C24.5635066,35.7956015 24.6528524,36.0484142 24.5305419,36.2838679 C24.3054076,35.7945419 24.6322948,35.3289461 24.1827432,34.8789046 L23.7689971,35.2269548 L23.4279329,34.0047273 L22.9741246,34.1700779 C22.9436341,33.5801927 22.9308712,32.9980665 22.882655,32.418859 C22.9815671,31.5889154 22.8241564,30.7483123 22.4316785,30.0101173 C22.3714073,29.9293881 22.4036703,29.8182084 22.3994154,29.7215469 C22.3735338,29.1196243 22.3550983,28.5166322 22.3214166,27.9133137 C22.279581,27.1552408 22.2377453,26.3971316 22.1689643,25.6405362 C22.1505288,25.4316317 22.1430827,25.1126144 21.958016,25.0414417 C21.3514014,24.808816 21.4623756,24.4582822 21.4478356,24.1233208 C21.4269178,23.676479 21.4542174,23.2292837 21.4375541,22.7807196 C21.3563651,20.6032077 21.2266059,18.4256051 21.2067472,16.2488183 C21.1996565,15.6323748 21.1922108,15.0187955 21.1390309,14.4034216 C21.1301674,14.3056996 21.0337292,14.2104521 20.9007815,13.9799475 C20.7685418,14.2299222 20.6593373,14.3464163 20.6561516,14.4629014 C20.6281434,15.2379698 20.5919804,16.0144342 20.6192797,16.788433 C20.6660782,17.9933477 20.7649975,19.196087 20.8316438,20.4010017 C20.8518528,20.7462239 20.9227594,21.0928601 20.5434029,21.4051427 C20.4147029,21.5095904 20.4235703,21.7029224 20.4214374,21.8562356 C20.4182465,22.2053554 20.4384552,22.5558892 20.4632731,22.9064231 C20.5437532,24.0320253 20.635575,25.1565399 20.7110978,26.2835925 L20.7118068,26.2839465 C20.698689,26.4078733 20.6653623,26.5289631 20.6136027,26.6422666 C20.4778142,26.4337156 20.4069112,26.1901131 20.409035,25.9411989 C20.2810429,24.8562952 20.1580245,23.7685817 20.0098289,22.6844032 C19.879359,21.7159755 19.6655699,20.7518987 19.5850915,19.7820208 C19.477312,18.5027789 19.4900731,17.2171015 19.4021523,15.9364094 L19.4021523,15.9367635 C19.3330173,15.2349889 19.2270095,14.5371481 19.0841325,13.8466313 C19.0703059,13.769797 18.9114766,13.7039414 18.8199979,13.6324151 C18.7054839,13.8951342 18.6661297,14.1844116 18.7065458,14.4683865 C18.7281725,14.7594314 18.7572444,15.0504854 18.7934075,15.3415304 C18.8263794,15.6113378 18.885939,15.8825591 18.9118242,16.1523574 C18.9384147,16.4419884 18.945505,16.7330333 18.9504687,17.0226733 C18.9543687,17.2953087 18.9536595,17.5675906 18.9391235,17.838812 C18.9263606,18.0994101 19.1419214,18.3692174 18.8731797,18.7172676 C18.7072583,17.2619975 18.5739476,15.9052561 18.3903004,14.5515966 C18.322938,13.806268 18.1701308,13.0715809 17.9347223,12.3609414 C17.6142247,11.3915167 17.508215,10.3636273 17.6241449,9.34888122 C17.6326538,8.73102365 17.5986182,8.11314795 17.522392,7.49994942 C17.5078556,7.31724979 17.5521727,7.10055912 17.2036643,7 C16.8594053,7.12357333 16.9576185,7.34097101 16.964707,7.5219031 C17.0054789,8.60399683 17.0590174,9.68599991 17.1171593,10.7666434 C17.1717579,11.7746819 17.236284,12.7799105 17.2990366,13.7864988 C17.313573,13.9996544 17.3408723,14.212801 17.3649804,14.4256031 C17.4149701,14.8519052 17.5018309,15.2775003 17.513884,15.7034852 C17.5372833,16.6322113 17.5000574,17.5595778 17.5316107,18.4864911 C17.570964,19.6691077 17.656408,20.8520868 17.7145499,22.0343408 L17.7145499,22.0346949 C17.7124226,22.2071247 17.7000135,22.3795635 17.6769691,22.5505793 C17.3873123,21.6866447 17.1618241,20.8269159 16.9157783,19.9697069 C16.733901,19.341226 16.5311031,18.7141229 16.318739,18.0899566 C16.2871848,18.0003761 16.1563573,17.92602 16.0273123,17.8013861 C15.8511076,18.0272861 15.8057268,18.3289544 15.9074797,18.5966317 C16.175862,20.0770099 16.3637658,21.5708032 16.4708374,23.0717573 C16.484664,23.6142 16.5601813,24.1580206 16.5420998,24.7015148 C16.5148005,25.6142878 16.4293557,26.5242508 16.3793641,27.4371144 C16.3215744,28.5060649 16.2878945,29.5746529 16.2215931,30.6436034 C16.1847212,31.24694 16.1042383,31.8474304 16.0386539,32.5287017 C15.8174224,32.117265 15.866352,31.7359307 15.4752963,31.388234 C14.8541416,32.0970879 15.3898523,32.8619046 14.9739833,33.5257725 C14.7446013,33.1433686 15.0381545,32.6830754 14.4879092,32.2599458 C14.3780059,32.4079474 14.2883061,32.5697629 14.2209428,32.7411322 C14.1266324,33.221258 14.0599861,33.7042119 13.9922688,34.1882444 C13.9046983,34.8230975 13.8306042,35.4607787 13.7373556,36.0984508 C13.7292012,36.1632459 13.6473028,36.2227311 13.5923457,36.2861085 L13.5923457,36.3087692 L13.5877367,36.341698 L13.5820641,36.2970845 L13.5923456,36.2868165 C13.5884457,34.446677 13.5941183,32.6065376 13.5714278,30.7664888 C13.5498011,30.3366425 13.493429,29.9092798 13.4026655,29.4886066 C13.3799751,29.3643263 13.3349492,29.2042873 12.9453084,29.2531438 L12.60743,30.7069636 C12.4787299,29.0824634 12.4578185,27.4700187 12.4000214,25.8575739 L12.3996669,25.8575739 C12.3702402,25.1186266 12.3003918,24.3821811 12.1901345,23.6509657 C12.1649627,23.4721546 12.253242,23.2023563 11.810778,23.11136 C11.7583069,23.1694285 11.6852728,23.2158077 11.6771133,23.2646732 C11.5909605,23.8255256 11.4941741,24.3852902 11.4420587,24.9471849 C11.3906504,25.4867905 11.4115683,26.0292786 11.3583874,26.5702348 C11.2892524,27.2674048 11.1669347,27.9606953 11.0910671,28.6564695 C10.9985355,29.5271388 10.9120215,30.3974457 10.8588443,31.2706078 C10.8343813,31.6055601 10.618825,31.8962515 10.3054069,32.0180573 C10.1501227,31.8739534 10.3561054,31.6041461 9.90726267,31.5457268 C9.4952864,31.7018771 9.79842128,32.0141688 9.59207464,32.2259013 C9.40275488,32.3013188 9.20314276,32.3484141 9,32.3654096 L9,33.9845619 C9.09288549,33.9923515 9.18613402,33.9951843 9.27937348,33.9923515 C9.44210914,34.4763659 10.2515217,34.6208324 10.3625232,35.1367168 C10.8790841,34.8945283 11.1705107,34.6696979 11.1662631,34.2926057 C11.1797358,33.8871877 11.2187342,33.4828392 11.2839719,33.0823431 C11.3846629,32.2307993 11.4966991,31.3813403 11.5920624,30.5276665 C11.6884966,29.6785973 11.768975,28.8292017 11.869666,27.8678442 C11.9104379,28.6719455 11.9565276,29.3627252 11.9767375,30.0517918 C12.0104183,31.198967 12.0249547,32.3468674 12.0554451,33.4923205 L12.0554451,33.4926745 C12.0572179,33.7284908 12.0916082,33.9632375 12.157198,34.1898445 C12.1901699,34.2942922 12.3646066,34.3789164 12.5120943,34.5060338 L12.875141,33.9650051 C13.0088057,35.1316685 13.0144783,36.2760339 13.0343278,37.4214869 C13.0481545,38.1409641 13.0832538,38.8608039 13.1084266,39.5802358 C13.1148082,39.7576237 13.1470711,39.925458 13.5806686,40.0114961 C14.0642558,38.5736294 14.1365838,37.1144616 14.4953646,35.6238408 C14.790694,35.954542 14.4545927,36.3776626 15.2154314,36.5327161 C15.2991027,36.171559 15.3877333,35.8500671 15.4448133,35.5261279 C15.5015394,35.2042734 15.5284847,34.8788839 15.5689027,34.5563406 C15.6770361,34.7967525 15.7610633,35.0477968 15.8199131,35.3048507 C15.8865667,35.5509277 15.7153285,35.8430423 16.0822688,36.0459281 L16.2723056,35.9627207 C16.7775213,31.8221577 16.9845759,27.6724397 17.1770904,23.5165581 L17.1767359,23.5165581 C17.4089587,23.9386091 17.5681456,24.3964277 17.64827,24.8712147 C17.6961323,25.6689438 17.6574878,26.4695191 17.5323401,27.258746 C17.5178037,27.7845467 17.5699209,28.3096586 17.6879782,28.8223343 C17.6968417,28.9306796 17.8851035,29.0312387 18.0290424,29.1742821 C18.1481671,29.0645228 18.2655219,29.0060944 18.2687077,28.944131 L18.2687077,28.9437768 C18.3186974,28.4820606 18.3250788,28.016501 18.2882069,27.5536789 C18.1212236,26.4570823 18.1797195,25.3382783 18.4608628,24.2650675 C18.5530404,24.4371438 18.6115453,24.6255177 18.6331648,24.8195477 C18.7079723,25.7323206 18.77321,26.6451843 18.8341837,27.5590449 C18.9355826,28.781635 18.9082824,30.0113859 18.7522858,31.2282654 C18.7157688,31.4987798 18.7139962,31.7724757 18.7473223,32.0433436 C18.7675313,32.2140058 18.8228388,32.5001017 18.9533059,32.5248835 C19.4652562,32.6201309 19.352512,32.8715196 19.3627953,33.0804241 C19.3950584,33.7404124 19.408531,34.4000926 19.4103036,35.060788 C19.3702405,35.4853226 19.3567688,35.9123317 19.3698865,36.3386701 C19.4524942,36.916518 19.4407941,37.5038833 19.3344332,38.0781961 C19.2759346,38.3037425 19.3748503,38.5402659 19.5765853,38.6574579 C19.9467205,38.6652475 19.9999068,38.497419 20.0034465,38.3451663 C20.0211732,37.6494103 20.0307458,36.9536181 20.0194006,36.257572 C20.0080554,35.5975837 19.9630294,34.9379035 19.9421116,34.2786584 C19.8921219,32.6662137 19.8400047,31.0548567 19.8034913,29.4424119 C19.7776097,28.3139997 19.7769009,27.1841373 19.7648468,26.0546374 L19.7652014,26.0549915 C19.8470993,26.1743137 19.899928,26.3113384 19.9197776,26.4543818 C20.0477697,27.2666228 20.1548322,28.0803323 20.3062226,28.8907696 L20.3062226,28.8911236 C20.3239493,29.1605775 20.4462679,29.4123197 20.6472868,29.5936053 C20.8802175,29.7423139 21.0053688,30.0128283 20.9681474,30.2865242 C20.9610567,31.5895144 20.9617657,32.8925046 20.9231215,34.1951323 C20.8756132,35.770776 20.8078996,37.3460572 20.7199697,38.921701 C20.6572161,40.0274525 20.5051186,41.1307566 20.4689592,42.2368707 L20.4689592,42.2365167 C20.4969673,42.701768 20.4647047,43.1687778 20.3732329,43.6255269 C20.3413247,43.7207743 20.3487699,43.824515 20.3934419,43.9140973 C20.4384678,43.9934098 20.5703545,44.050415 20.663957,44.1166296 C20.7749313,44.0454605 20.9745343,43.9803119 20.9841006,43.903474 C21.067772,43.2842024 21.1425796,42.6649308 21.1670398,42.044934 C21.195048,41.349178 21.1510857,40.6520262 21.1716488,39.9548017 C21.2230571,38.0867443 21.2936143,36.2204091 21.3599066,34.3526236 C21.3776333,33.8328415 21.40316,33.3126788 21.4311691,32.6913224 C21.6942327,32.8184308 21.8729242,32.8605706 21.9236237,32.9388226 L21.9236237,32.9384685 C21.9686497,33.0475209 21.9796409,33.1679036 21.9551779,33.2836907 C21.922206,34.2361652 21.889943,35.1886397 21.8481064,36.139664 C21.839952,36.3156379 21.7935078,36.4901978 22.226401,36.5684497 L22.4582698,36.0539793 C22.4798965,36.4746163 22.4774151,36.884639 22.5274048,37.2925225 C22.5742042,37.6784614 22.2650491,38.0966238 22.72453,38.4751391 C23.2176926,38.2648206 22.9861778,37.8983518 23.2169847,37.615093 C23.4261631,38.3689148 23.0819041,39.1163191 23.5172787,39.8783531 L23.9406002,39.5607498 C23.9622269,39.9870519 23.9696721,40.3744139 24.006544,40.7617668 C24.0210804,40.9111824 24.0242707,41.122924 24.164315,41.1955108 L24.164315,41.1958648 C24.465317,41.3293545 24.6354951,41.6511998 24.5762913,41.9748309 C24.5762913,42.1401815 24.5185015,42.3374021 24.9127448,42.4060912 C24.9723071,42.3480236 25.0832768,42.2871225 25.0914363,42.2223311 C25.3006147,40.497308 25.4984479,38.7708346 25.6966351,37.0606769 L26.0901686,37.2472742 C26.6010569,36.5341691 26.3372854,35.7644486 26.70104,35.0672242 L27.2789376,35.2219515 L27.5951876,34.2365736 L27.5944786,34.2365736 C27.7001342,34.4330872 27.7518956,34.6536755 27.7451611,34.8767384 C27.7533155,35.0909545 27.74977,35.3055241 27.7660789,35.5197403 C27.782033,35.7222725 27.7692698,35.9379027 28.2319404,36.0898019 L28.6931912,33.9377606 C28.7644536,34.2578384 28.6563192,34.6044837 29.1881236,34.8650364 C29.641224,34.2659419 29.4930283,33.6094524 29.769924,32.9151285 C29.8504042,33.0751675 29.913155,33.142796 29.913155,33.2086571 C29.9099642,33.5776005 29.8840831,33.9454833 29.8808919,34.3144086 C29.8745102,34.9956436 29.8727376,35.6755009 29.8808919,36.3570441 C29.8826646,36.5436413 29.8855009,36.7447505 30.3187444,36.8821378 L30.7193754,35.8343977 C30.7516385,36.2695556 30.7239844,36.6972718 30.7264662,37.1228851 C30.7282388,37.2114032 30.8416881,37.3013426 30.9363525,37.4404884 C31.4514976,37.0329493 31.1802745,36.5464512 31.6004012,36.0514781 C31.54793,36.7089919 31.4837543,37.2316474 31.4681614,37.7552908 C31.4256169,39.4074371 31.4206531,41.0594927 31.3579042,42.7105513 C31.3306049,43.4672102 31.203328,44.2238328 31.1242655,44.9790686 L31.123911,44.9790686 C31.0817213,45.3069417 31.0558397,45.6369359 31.046622,45.9672564 C31.0608035,46.0925973 31.1430562,46.1995286 31.260765,46.24485 C31.3309637,46.2710512 31.4093146,46.2643237 31.4742002,46.2271465 C31.5390802,46.1899685 31.5841035,46.1258804 31.5972276,46.0522331 C31.7755561,45.6347777 31.8617162,45.1840473 31.850017,44.7304798 C31.8046362,44.1094316 31.8021547,43.4855916 31.8425717,42.8641446 C31.8755436,41.6404668 31.9212793,40.4167891 31.9645372,39.1920236 L31.9893551,38.6641018 C32.0318996,39.9299285 32.0318996,39.9299285 32.6250407,40.1402197 L32.6253952,40.1402197 C33.2706562,38.3617174 33.8102888,36.546686 34.2417697,34.7048244 C34.2747416,35.4483763 34.2488605,36.1862902 34.2506331,36.9244852 C34.2531149,37.4495789 34.2850236,37.9746727 34.3183495,38.500129 C34.3311124,38.7104474 34.3683392,38.9264311 34.8969551,39.0252227 L34.8966005,39.0252227 C35.2603551,38.056795 35.5539146,37.0632593 35.7744383,36.0527734 C36.007015,35.0727435 36.2232819,34.089813 36.4583455,33.0552161 L36.8447906,33.6755572 C37.4315466,33.6068672 37.2301737,33.2733298 37.3929093,33.069737 C37.6875308,33.2920929 37.5804592,33.6107658 37.9867629,33.7442464 L38.8422642,33.2124269 L38.8422642,33.2127811 C39.1145492,33.502412 39.418038,33.761596 39.7470491,33.9853659 C40.1749722,34.2233032 39.7002505,34.6747497 40.3263626,34.8546122 C40.7865515,34.5196599 40.4454873,34.0505109 40.7383389,33.6482472 C41.0545888,34.0688842 40.8638441,34.5678184 41.5027245,34.8333112 C41.8519482,34.6757468 41.8359923,34.454805 41.8714438,34.2444865 L41.8714438,34.2441324 C42.1022507,32.6246175 42.2210214,30.9908717 42.227048,29.3550412 C42.2341387,29.1461367 42.1096932,28.896162 42.2415844,28.733286 C42.4915329,28.3473471 42.5957636,27.8849238 42.5351439,27.4288454 C42.5564166,27.0457346 42.7365259,26.6091626 42.5213173,26.2911877 C42.2188994,25.8443459 42.4135378,25.4690303 42.461755,24.9775923 C42.7039071,25.357159 42.4472186,25.7501771 42.9283244,26.0214347 L43.3225749,25.7859719 C43.3569654,26.4739326 43.3998639,27.1324707 43.420779,27.7899935 C43.4576509,28.8787948 43.5133105,29.9675055 43.5026769,31.0559442 C43.4881405,32.4542 43.4140427,33.8524558 43.372207,35.2520713 C43.3342713,36.573462 43.3009446,37.896303 43.2807374,39.2176937 C43.2775466,39.3989793 43.1729579,39.6107118 43.4569421,39.7548248 L43.9614499,39.6769282 L43.9618045,39.6769282 C43.9965489,39.7597811 44.0231394,39.8454694 44.0415758,39.9336286 C44.1043293,40.5621095 43.8944421,41.2128704 44.4177375,41.804224 C44.4531908,41.8449426 44.4120649,41.9168205 44.4063923,41.9748863 C44.2897454,43.0211761 44.1908334,44.0674659 44.0497262,45.112668 L44.0497262,45.112314 C44.0514989,45.534365 43.9313095,45.9475692 43.7040513,46.3030884 C43.3161904,46.7619676 43.6919973,47.1231247 43.7813403,47.5228685 C43.7933944,47.5735007 43.9518724,47.6393627 44.043696,47.6407767 L44.043696,47.6407767 C44.1454489,47.6400686 44.2425911,47.5997041 44.3142111,47.5278262 C44.4191498,47.3366242 44.488292,47.1277198 44.517363,46.9113826 C44.5439534,46.4259451 44.4925451,45.9376977 44.529417,45.4536651 C44.5850793,44.7366625 44.6818694,44.0196961 44.7790116,43.3040712 C44.9470659,42.0474901 45.117952,40.7908183 45.3069177,39.5353249 C45.3923617,38.970575 45.5522556,38.7864613 46.2602783,38.2256271 L46.2606328,38.2259812 C46.324804,38.1703918 46.3691202,38.0956822 46.386846,38.0128256 C46.544617,37.3988656 46.7435121,36.7876975 46.8374595,36.1702388 C47.073939,34.625051 47.2621968,33.0759656 47.4681804,31.5272427 C47.5089524,32.2601713 47.494062,32.9927555 47.4770439,33.7256931 C47.4522261,34.8739561 47.419963,36.0207688 47.3990452,37.1690318 C47.3877,37.7723684 47.3866362,38.3750342 47.3958544,38.9772649 C47.3990452,39.1440296 47.3894727,39.3426642 47.8624238,39.3610828 L47.8624238,39.3607288 C47.959212,39.19042 48.0368586,39.0105484 48.0942926,38.8235977 C48.3339578,37.5906743 48.5594461,36.3567539 48.7806777,35.1224709 C48.8257036,34.8788684 48.7317517,34.6065865 49.2529197,34.5152367 C49.3479381,34.4982412 49.4053721,34.3605094 49.4557176,34.2730482 C49.5443518,34.1154838 49.6134886,33.9529703 49.6808519,33.812755 L50.3069621,33.7387533 C50.2878169,34.5283337 50.2778903,35.2850288 50.2427909,36.0406272 L50.2427909,36.040273 C50.2052101,36.21554 50.1502594,36.3865557 50.0786394,36.5508458 C49.912718,37.2359784 49.9474615,37.9539963 50.1786224,38.6200396 L50.4037567,38.6727964 C50.4750191,38.5630371 50.5282,38.4422918 50.5608198,38.3155369 C50.6608028,36.6436305 50.7497856,34.9727211 50.8384234,33.3032621 C50.8511863,33.0692224 50.8345235,32.8348201 50.8593412,32.6021944 C50.8898317,32.3440709 51.134458,32.3522197 51.4507079,32.4194948 C51.5067251,32.7278888 51.5173606,33.0423105 51.4819073,33.3535688 C51.3751897,34.0287852 51.3911456,34.717471 51.5287058,35.3866868 C51.5368602,35.4819342 51.6559809,35.57187 51.7378842,35.6844665 C52.0388862,35.5952396 52.2214714,35.2907323 52.1580109,34.9833989 C52.1363842,34.6565862 52.1420568,34.3272991 52.1420568,34.0004684 L52.2009103,33.9597498 L52.4848944,34.25859 C53.1333412,33.5734574 52.5848775,32.9396467 52.8741803,32.386635 L52.8741803,32.3873431 C53.5829018,32.350165 54.2934204,32.3657447 55,32.4337268 L55,30.7702502 C54.2639774,30.8042412 53.5265751,30.7482974 52.8040215,30.6038391 L52.8038735,30.6040543 Z M13.0414559,33.1875095 L13.0555179,33.1425875 L13.0750489,33.1789155 L13.0414559,33.1875095 Z M17.9718503,15.4994673 L17.9894283,15.5490763 L17.9523193,15.5389203 L17.9718503,15.4994673 Z M18.03239,17.9210654 L18.032007,17.9207013 C17.9898745,17.6043122 17.9741713,17.2850058 17.9860446,16.9657087 C17.9722563,16.6271086 17.9511896,16.288145 17.9320388,15.9509709 L18.0170696,15.9320388 L18.3786408,18.8349515 C17.9600026,18.5669831 18.0982674,18.228383 18.0323953,17.9207274 L18.03239,17.9210654 Z M19.1086198,19.2815534 L19.0373786,19.1731388 L19.1056792,19.0582524 L19.1373786,19.1305288 L19.1086198,19.2815534 Z M27.5261355,33.7840667 L27.5421515,33.5728155 L27.6194955,33.7961165 L27.5261355,33.7840667 Z M29.7694969,32.3455437 L29.8323879,32.2330097 L29.8421535,32.4563107 L29.7694969,32.3455437 Z M30.5420584,33.1262136 L30.4392551,33.0640845 C30.4341784,33.0113135 30.4373513,32.9582856 30.4481393,32.9057721 L30.6454899,32.9029126 C30.6512012,32.9551639 30.6613546,33.0076734 30.6600855,33.0601868 L30.5420584,33.1262136 Z M31.635984,31.747795 L31.578171,31.7864078 L31.543405,31.608797 L31.641061,31.5631068 L31.635984,31.747795 Z M31.8026435,31.1735038 L31.7858465,31.1371758 L31.8452215,31.1399102 L31.8026435,31.1735038 Z M32.0393703,38.038835 L32.0390507,38.038835 C31.9048184,35.192059 32.1170348,32.338725 32.6696297,29.5533981 C32.6785791,32.3963109 32.467635,35.2349116 32.0390507,38.038835 L32.0393703,38.038835 Z M42.743805,22.631068 L42.7348206,22.407767 L42.7797426,22.4887917 L42.743805,22.631068 Z M43.4590205,25.3801785 L43.3953485,25.3758817 L43.3988641,25.3188507 L43.4590201,25.3231476 L43.4590205,25.3801785 Z M44.662596,38.7087379 C44.6025279,38.6720717 44.5497963,38.6311984 44.5048544,38.5864197 L44.7281553,38.4854369 L44.662596,38.7087379 Z M52.1279978,33.1262136 L52.0970874,32.4563107 L52.2425323,32.4563107 C52.3090451,32.5613975 52.3344368,32.6918293 52.3129083,32.8179913 C52.2913799,32.9441533 52.2245929,33.0553476 52.1277215,33.1262136 L52.1279978,33.1262136 Z" id="path-9"></path>
        <filter x="-80.4%" y="-86.1%" width="260.9%" height="282.1%" filterUnits="objectBoundingBox" id="filter-10">
            <feOffset dx="0" dy="2" in="SourceAlpha" result="shadowOffsetOuter1"></feOffset>
            <feGaussianBlur stdDeviation="12" in="shadowOffsetOuter1" result="shadowBlurOuter1"></feGaussianBlur>
            <feColorMatrix values="0 0 0 0 1   0 0 0 0 0.857353584   0 0 0 0 0  0 0 0 1 0" type="matrix" in="shadowBlurOuter1"></feColorMatrix>
        </filter>
    </defs>
    <g id="Home" stroke="none" stroke-width="1" fill="none" fill-rule="evenodd">
        <g transform="translate(-17.000000, 27.000000)" id="Light">
            <g transform="translate(59.000000, 48.000000)">
                <ellipse id="Oval" fill="#FFF103" opacity="0.113606771" filter="url(#filter-1)" cx="101" cy="137.176742" rx="101" ry="10"></ellipse>
                <g id="Light-Bulb" transform="translate(69.000000, 0.000000)">
                    <rect id="Rectangle" fill="url(#radialGradient-2)" filter="url(#filter-3)" x="8" y="15" width="43" height="34"></rect>
                    <rect id="Rectangle" fill="#D8D8D8" x="8" y="15" width="43" height="34"></rect>
                    <g id="Group-5-Copy">
                        <path d="M45.8083137,79 L18.1865754,79 C15.8736989,79 14,80.1206433 14,81.5 C14,82.8811268 15.8736477,84 18.1865754,84 L45.8134246,84 C48.1263011,84 50,82.8811573 50,81.5 C49.9970055,80.1212537 48.1263523,79 45.810358,79 L45.8083137,79 Z" id="Path" fill="url(#radialGradient-4)" fill-rule="nonzero" transform="translate(32.000000, 81.500000) rotate(2.000000) translate(-32.000000, -81.500000) "></path>
                        <path d="M45.0411852,85 L18.9539879,85 C16.7696045,85 15,86.1206433 15,87.5 C15,88.8811268 16.7695562,90 18.9539879,90 L45.0460121,90 C47.2303955,90 49,88.8811573 49,87.5 C48.9971719,86.1212537 47.2304438,85 45.0431159,85 L45.0411852,85 Z" id="Path" fill="url(#radialGradient-5)" fill-rule="nonzero" transform="translate(32.000000, 87.500000) rotate(2.000000) translate(-32.000000, -87.500000) "></path>
                        <path d="M41.972671,91 L22.0236378,91 C20.353227,91 19,92.1206433 19,93.5 C19,94.8811268 20.35319,96 22.0236378,96 L41.9763622,96 C43.646773,96 45,94.8811573 45,93.5 C44.9978373,92.1212537 43.64681,91 41.9741475,91 L41.972671,91 Z" id="Path" fill="url(#radialGradient-6)" fill-rule="nonzero" transform="translate(32.000000, 93.500000) rotate(2.000000) translate(-32.000000, -93.500000) "></path>
                        <path d="M27.3955251,98 C26.6245663,98 26,98.8965147 26,100 C26,101.104901 26.6245492,102 27.3955251,102 L36.6044749,102 C37.3754337,102 38,101.104926 38,100 C37.9990018,98.897003 37.3754508,98 36.6034527,98 L27.3955251,98 Z" id="Path" fill="url(#radialGradient-7)" fill-rule="nonzero"></path>
                        <path d="M0,31.3846299 C0,38.9804053 2.70868572,45.9417942 7.20768908,51.368954 C7.22071216,51.3889143 16.7968263,64.4519298 16.7968263,77 L46.197017,77 C46.197017,64.4530463 55.7720492,51.3894879 55.7861543,51.3690486 C60.2951594,45.9418888 63,38.9817773 63,31.3847245 C63.0040057,14.0521512 48.9000607,0 31.5021021,0 C14.1050667,0 0,14.0510347 0,31.3846299 Z" id="Combined-Shape" fill="url(#linearGradient-8)" fill-rule="nonzero"></path>
                        <line x1="47.5" y1="44.5" x2="35.5" y2="76.5" id="Line" stroke="#000000" stroke-width="2" stroke-linecap="round"></line>
                        <line x1="14.5" y1="36.5" x2="26.5" y2="76.5" id="Line" stroke="#000000" stroke-width="2" stroke-linecap="round"></line>
                    </g>
                    <path d="M16.3402795,11.4744148 C17.3104866,10.9910835 22.8635848,10.4594987 22.8635848,8.25035973 C22.8635848,6.04122073 19.5,6.04122073 15.8071601,6.81690929 C12.1143202,7.59259786 8.75073548,10.5857579 8.75073548,12.7948969 C8.75073548,15.0040359 15.3700724,11.9577461 16.3402795,11.4744148 Z" id="Oval" fill="#FFFFFF" transform="translate(15.807160, 9.968354) rotate(-10.000000) translate(-15.807160, -9.968354) "></path>
                    <g id="Shape" fill-rule="nonzero">
                        <use fill="black" fill-opacity="1" filter="url(#filter-10)" xlink:href="#path-9"></use>
                        <use fill="#020200" xlink:href="#path-9"></use>
                    </g>
                </g>
            </g>
        </g>
    </g>
</svg>
