<?xml version="1.0" encoding="UTF-8"?>
<svg width="974px" height="283px" viewBox="0 0 974 283" version="1.1" xmlns="http://www.w3.org/2000/svg" xmlns:xlink="http://www.w3.org/1999/xlink">
    <title>About Copy</title>
    <g id="Icons" stroke="none" stroke-width="1" fill="none" fill-rule="evenodd" opacity="0.15">
        <g id="About" fill="#FFFFFF" fill-rule="nonzero">
            <g id="About-Copy" transform="translate(0.000000, 0.101562)">
                <path d="M36.328125,279 L0,279 L100.992188,14.53125 L124.242188,14.53125 L123.697266,37.78125 L36.328125,279 Z M109.166016,37.78125 L108.802734,14.53125 L131.871094,14.53125 L233.044922,279 L196.898438,279 L109.166016,37.78125 Z M192.539062,209.794922 L43.7753906,209.794922 L43.7753906,181.277344 L192.539062,181.277344 L192.539062,209.794922 Z" id="Shape"></path>
                <path d="M297.345703,0 L297.345703,240.855469 L294.439453,279 L263.378906,279 L263.378906,0 L297.345703,0 Z M429.943359,182.912109 C429.943359,202.044922 426.976562,219.119141 421.042969,234.134766 C415.109375,249.150391 406.451172,260.987305 395.068359,269.645508 C383.685547,278.303711 369.880859,282.632812 353.654297,282.632812 C336.943359,282.632812 323.017578,278.848633 311.876953,271.280273 C300.736328,263.711914 292.078125,252.995117 285.902344,239.129883 C279.726562,225.264648 275.669922,208.826172 273.732422,189.814453 L273.732422,172.195312 C275.669922,152.941406 279.726562,136.351562 285.902344,122.425781 C292.078125,108.5 300.706055,97.7529297 311.786133,90.1845703 C322.866211,82.6162109 336.701172,78.8320312 353.291016,78.8320312 C369.759766,78.8320312 383.685547,83.0097656 395.068359,91.3652344 C406.451172,99.7207031 415.109375,111.436523 421.042969,126.512695 C426.976562,141.588867 429.943359,159.117188 429.943359,179.097656 L429.943359,182.912109 Z M395.976562,179.097656 C395.976562,166.019531 394.341797,154.000977 391.072266,143.041992 C387.802734,132.083008 382.444336,123.333984 374.99707,116.794922 C367.549805,110.255859 357.46875,106.986328 344.753906,106.986328 C336.398438,106.986328 329.102539,108.439453 322.866211,111.345703 C316.629883,114.251953 311.332031,118.157227 306.972656,123.061523 C302.613281,127.96582 299.071289,133.536133 296.34668,139.772461 C293.62207,146.008789 291.59375,152.457031 290.261719,159.117188 L290.261719,203.255859 C292.199219,211.732422 295.347656,219.875977 299.707031,227.686523 C304.066406,235.49707 309.969727,241.884766 317.416992,246.849609 C324.864258,251.814453 334.097656,254.296875 345.117188,254.296875 C357.226562,254.296875 367.004883,251.057617 374.452148,244.579102 C381.899414,238.100586 387.348633,229.472656 390.799805,218.695312 C394.250977,207.917969 395.976562,195.990234 395.976562,182.912109 L395.976562,179.097656 Z" id="Shape"></path>
                <path d="M463.546875,178.734375 C463.546875,159.722656 467.179688,142.708984 474.445312,127.693359 C481.710938,112.677734 492.003906,100.780273 505.324219,92.0009766 C518.644531,83.2216797 534.447266,78.8320312 552.732422,78.8320312 C571.259766,78.8320312 587.244141,83.2216797 600.685547,92.0009766 C614.126953,100.780273 624.450195,112.677734 631.655273,127.693359 C638.860352,142.708984 642.462891,159.722656 642.462891,178.734375 L642.462891,182.912109 C642.462891,201.802734 638.860352,218.786133 631.655273,233.862305 C624.450195,248.938477 614.157227,260.835938 600.776367,269.554688 C587.395508,278.273438 571.501953,282.632812 553.095703,282.632812 C534.689453,282.632812 518.795898,278.273438 505.415039,269.554688 C492.03418,260.835938 481.710938,248.938477 474.445312,233.862305 C467.179688,218.786133 463.546875,201.802734 463.546875,182.912109 L463.546875,178.734375 Z M497.513672,182.912109 C497.513672,195.869141 499.572266,207.857422 503.689453,218.876953 C507.806641,229.896484 513.952148,238.736328 522.125977,245.396484 C530.299805,252.056641 540.623047,255.386719 553.095703,255.386719 C565.447266,255.386719 575.709961,252.056641 583.883789,245.396484 C592.057617,238.736328 598.203125,229.896484 602.320312,218.876953 C606.4375,207.857422 608.496094,195.869141 608.496094,182.912109 L608.496094,178.734375 C608.496094,165.777344 606.4375,153.789062 602.320312,142.769531 C598.203125,131.75 592.027344,122.879883 583.792969,116.15918 C575.558594,109.438477 565.205078,106.078125 552.732422,106.078125 C540.501953,106.078125 530.269531,109.438477 522.035156,116.15918 C513.800781,122.879883 507.655273,131.75 503.598633,142.769531 C499.541992,153.789062 497.513672,165.777344 497.513672,178.734375 L497.513672,182.912109 Z" id="Shape"></path>
                <path d="M804.849609,82.4648438 L838.816406,82.4648438 L838.816406,279 L806.484375,279 L804.849609,233.589844 L804.849609,82.4648438 Z M825.375,191.8125 C825.375,209.25 822.892578,224.810547 817.927734,238.494141 C812.962891,252.177734 804.849609,262.955078 793.587891,270.826172 C782.326172,278.697266 767.25,282.632812 748.359375,282.632812 C729.105469,282.632812 713.544922,276.941406 701.677734,265.558594 C689.810547,254.175781 683.876953,235.40625 683.876953,209.25 L683.876953,82.4648438 L717.84375,82.4648438 L717.84375,209.613281 C717.84375,221.480469 719.569336,230.65332 723.020508,237.131836 C726.47168,243.610352 730.952148,248.09082 736.461914,250.573242 C741.97168,253.055664 747.753906,254.296875 753.808594,254.296875 C768.097656,254.296875 779.419922,251.541992 787.775391,246.032227 C796.130859,240.522461 802.125,233.044922 805.757812,223.599609 C809.390625,214.154297 811.207031,203.679688 811.207031,192.175781 L825.375,191.8125 Z" id="Shape"></path>
                <path d="M972.322266,108.076172 L865.880859,108.076172 L865.880859,82.4648438 L972.322266,82.4648438 L972.322266,108.076172 Z M935.630859,34.6933594 L935.630859,230.320312 C935.630859,237.101562 936.660156,242.1875 938.71875,245.578125 C940.777344,248.96875 943.441406,251.208984 946.710938,252.298828 C949.980469,253.388672 953.492188,253.933594 957.246094,253.933594 C960.03125,253.933594 962.967773,253.691406 966.055664,253.207031 C969.143555,252.722656 971.414062,252.298828 972.867188,251.935547 L973.048828,279 C970.384766,279.847656 966.90332,280.665039 962.604492,281.452148 C958.305664,282.239258 953.128906,282.632812 947.074219,282.632812 C938.839844,282.632812 931.271484,280.998047 924.369141,277.728516 C917.466797,274.458984 911.957031,268.979492 907.839844,261.290039 C903.722656,253.600586 901.664062,243.216797 901.664062,230.138672 L901.664062,34.6933594 L935.630859,34.6933594 Z" id="Shape"></path>
            </g>
        </g>
    </g>
</svg>