<?xml version="1.0" encoding="UTF-8"?>
<svg width="1267px" height="272px" viewBox="0 0 1267 272" version="1.1" xmlns="http://www.w3.org/2000/svg" xmlns:xlink="http://www.w3.org/1999/xlink">
    <title>Contact</title>
    <g id="Icons" stroke="none" stroke-width="1" fill="none" fill-rule="evenodd" opacity="0.15">
        <g id="Contact" fill="#FFFFFF" fill-rule="nonzero">
            <g transform="translate(0.529297, 0.000000)">
                <path d="M203.800781,184.183594 C201.984375,200.773438 197.201172,215.698242 189.451172,228.958008 C181.701172,242.217773 170.742188,252.662109 156.574219,260.291016 C142.40625,267.919922 124.666016,271.734375 103.353516,271.734375 C82.6464844,271.734375 64.5429688,266.678711 49.0429688,256.567383 C33.5429688,246.456055 21.4941406,232.197266 12.8964844,213.791016 C4.29882812,195.384766 0,173.890625 0,149.308594 L0,122.607422 C0,97.9042969 4.32910156,76.3798828 12.9873047,58.0341797 C21.6455078,39.6884766 33.9667969,25.4296875 49.9511719,15.2578125 C65.9355469,5.0859375 84.8261719,0 106.623047,0 C126.603516,0 143.496094,3.72363281 157.300781,11.1708984 C171.105469,18.6181641 181.852539,29.0019531 189.541992,42.3222656 C197.231445,55.6425781 201.984375,71.0214844 203.800781,88.4589844 L168.5625,88.4589844 C165.898438,69.9316406 159.995117,55.3095703 150.852539,44.5927734 C141.709961,33.8759766 126.966797,28.5175781 106.623047,28.5175781 C91.0019531,28.5175781 77.9238281,32.4228516 67.3886719,40.2333984 C56.8535156,48.0439453 48.8916016,58.9726562 43.5029297,73.0195312 C38.1142578,87.0664062 35.4199219,103.474609 35.4199219,122.244141 L35.4199219,149.308594 C35.4199219,166.625 37.8417969,182.397461 42.6855469,196.625977 C47.5292969,210.854492 54.9462891,222.207031 64.9365234,230.683594 C74.9267578,239.160156 87.7324219,243.398438 103.353516,243.398438 C118.248047,243.398438 130.084961,241.037109 138.864258,236.314453 C147.643555,231.591797 154.303711,224.810547 158.844727,215.970703 C163.385742,207.130859 166.625,196.535156 168.5625,184.183594 L203.800781,184.183594 Z" id="Path"></path>
                <path d="M237.222656,167.835938 C237.222656,148.824219 240.855469,131.810547 248.121094,116.794922 C255.386719,101.779297 265.679688,89.8818359 279,81.1025391 C292.320312,72.3232422 308.123047,67.9335938 326.408203,67.9335938 C344.935547,67.9335938 360.919922,72.3232422 374.361328,81.1025391 C387.802734,89.8818359 398.125977,101.779297 405.331055,116.794922 C412.536133,131.810547 416.138672,148.824219 416.138672,167.835938 L416.138672,172.013672 C416.138672,190.904297 412.536133,207.887695 405.331055,222.963867 C398.125977,238.040039 387.833008,249.9375 374.452148,258.65625 C361.071289,267.375 345.177734,271.734375 326.771484,271.734375 C308.365234,271.734375 292.47168,267.375 279.09082,258.65625 C265.709961,249.9375 255.386719,238.040039 248.121094,222.963867 C240.855469,207.887695 237.222656,190.904297 237.222656,172.013672 L237.222656,167.835938 Z M271.189453,172.013672 C271.189453,184.970703 273.248047,196.958984 277.365234,207.978516 C281.482422,218.998047 287.62793,227.837891 295.801758,234.498047 C303.975586,241.158203 314.298828,244.488281 326.771484,244.488281 C339.123047,244.488281 349.385742,241.158203 357.55957,234.498047 C365.733398,227.837891 371.878906,218.998047 375.996094,207.978516 C380.113281,196.958984 382.171875,184.970703 382.171875,172.013672 L382.171875,167.835938 C382.171875,154.878906 380.113281,142.890625 375.996094,131.871094 C371.878906,120.851562 365.703125,111.981445 357.46875,105.260742 C349.234375,98.5400391 338.880859,95.1796875 326.408203,95.1796875 C314.177734,95.1796875 303.945312,98.5400391 295.710938,105.260742 C287.476562,111.981445 281.331055,120.851562 277.274414,131.871094 C273.217773,142.890625 271.189453,154.878906 271.189453,167.835938 L271.189453,172.013672 Z" id="Shape"></path>
                <path d="M492.246094,268.101562 L458.279297,268.101562 L458.279297,71.5664062 L490.429688,71.5664062 L492.246094,113.525391 L492.246094,268.101562 Z M470.085938,161.660156 C470.328125,143.738281 473.779297,127.723633 480.439453,113.616211 C487.099609,99.5087891 496.393555,88.3681641 508.321289,80.1943359 C520.249023,72.0205078 534.144531,67.9335938 550.007812,67.9335938 C562.964844,67.9335938 574.135742,70.3251953 583.520508,75.1083984 C592.905273,79.8916016 600.170898,87.4902344 605.317383,97.9042969 C610.463867,108.318359 613.037109,122.123047 613.037109,139.318359 L613.037109,268.101562 L579.070312,268.101562 L579.070312,138.955078 C579.070312,128.662109 577.586914,120.367188 574.620117,114.070312 C571.65332,107.773438 567.263672,103.202148 561.451172,100.356445 C555.638672,97.5107422 548.494141,96.0878906 540.017578,96.0878906 C531.662109,96.0878906 524.09375,97.84375 517.3125,101.355469 C510.53125,104.867188 504.658203,109.710938 499.693359,115.886719 C494.728516,122.0625 490.914062,129.116211 488.25,137.047852 C485.585938,144.979492 484.253906,153.365234 484.253906,162.205078 L470.085938,161.660156 Z" id="Shape"></path>
                <path d="M746.361328,97.1777344 L639.919922,97.1777344 L639.919922,71.5664062 L746.361328,71.5664062 L746.361328,97.1777344 Z M709.669922,23.7949219 L709.669922,219.421875 C709.669922,226.203125 710.699219,231.289062 712.757812,234.679688 C714.816406,238.070312 717.480469,240.310547 720.75,241.400391 C724.019531,242.490234 727.53125,243.035156 731.285156,243.035156 C734.070312,243.035156 737.006836,242.792969 740.094727,242.308594 C743.182617,241.824219 745.453125,241.400391 746.90625,241.037109 L747.087891,268.101562 C744.423828,268.949219 740.942383,269.766602 736.643555,270.553711 C732.344727,271.34082 727.167969,271.734375 721.113281,271.734375 C712.878906,271.734375 705.310547,270.099609 698.408203,266.830078 C691.505859,263.560547 685.996094,258.081055 681.878906,250.391602 C677.761719,242.702148 675.703125,232.318359 675.703125,219.240234 L675.703125,23.7949219 L709.669922,23.7949219 Z" id="Shape"></path>
                <path d="M901.300781,133.324219 C901.300781,121.578125 897.819336,112.223633 890.856445,105.260742 C883.893555,98.2978516 873.630859,94.8164062 860.068359,94.8164062 C851.712891,94.8164062 844.356445,96.2695312 837.999023,99.1757812 C831.641602,102.082031 826.707031,105.896484 823.195312,110.619141 C819.683594,115.341797 817.927734,120.488281 817.927734,126.058594 L783.960938,126.058594 C783.960938,116.613281 787.169922,107.44043 793.587891,98.5400391 C800.005859,89.6396484 809.057617,82.3134766 820.743164,76.5615234 C832.428711,70.8095703 846.203125,67.9335938 862.066406,67.9335938 C876.355469,67.9335938 889.009766,70.3554688 900.029297,75.1992188 C911.048828,80.0429688 919.676758,87.3388672 925.913086,97.0869141 C932.149414,106.834961 935.267578,119.035156 935.267578,133.6875 L935.267578,225.234375 C935.267578,231.773438 935.842773,238.736328 936.993164,246.123047 C938.143555,253.509766 939.869141,259.867188 942.169922,265.195312 L942.169922,268.101562 L906.75,268.101562 C905.054688,264.226562 903.722656,259.049805 902.753906,252.571289 C901.785156,246.092773 901.300781,240.068359 901.300781,234.498047 L901.300781,133.324219 Z M907.476562,172.558594 L873.691406,172.558594 C854.558594,172.558594 839.785156,175.585938 829.371094,181.640625 C818.957031,187.695312 813.75,196.777344 813.75,208.886719 C813.75,218.332031 816.928711,226.324219 823.286133,232.863281 C829.643555,239.402344 838.9375,242.671875 851.167969,242.671875 C861.460938,242.671875 870.542969,240.492188 878.414062,236.132812 C886.285156,231.773438 892.521484,226.384766 897.123047,219.966797 C901.724609,213.548828 904.207031,207.373047 904.570312,201.439453 L919.101562,217.605469 C918.253906,222.691406 915.953125,228.322266 912.199219,234.498047 C908.445312,240.673828 903.450195,246.577148 897.213867,252.208008 C890.977539,257.838867 883.59082,262.500977 875.053711,266.194336 C866.516602,269.887695 856.919922,271.734375 846.263672,271.734375 C832.943359,271.734375 821.288086,269.161133 811.297852,264.014648 C801.307617,258.868164 793.557617,251.875 788.047852,243.035156 C782.538086,234.195312 779.783203,224.386719 779.783203,213.609375 C779.783203,192.417969 787.775391,176.342773 803.759766,165.383789 C819.744141,154.424805 841.238281,148.945312 868.242188,148.945312 L907.113281,148.945312 L907.476562,172.558594 Z" id="Shape"></path>
                <path d="M1066.77539,244.488281 C1074.76758,244.488281 1082.1543,242.823242 1088.93555,239.493164 C1095.7168,236.163086 1101.28711,231.591797 1105.64648,225.779297 C1110.00586,219.966797 1112.48828,213.367188 1113.09375,205.980469 L1145.24414,205.980469 C1144.63867,217.605469 1140.70312,228.413086 1133.4375,238.40332 C1126.17188,248.393555 1116.72656,256.446289 1105.10156,262.561523 C1093.47656,268.676758 1080.70117,271.734375 1066.77539,271.734375 C1047.03711,271.734375 1030.68945,267.223633 1017.73242,258.202148 C1004.77539,249.180664 995.118164,237.222656 988.760742,222.328125 C982.40332,207.433594 979.224609,191.207031 979.224609,173.648438 L979.224609,166.019531 C979.224609,148.339844 982.433594,132.083008 988.851562,117.249023 C995.269531,102.415039 1004.95703,90.4873047 1017.91406,81.4658203 C1030.87109,72.4443359 1047.1582,67.9335938 1066.77539,67.9335938 C1082.1543,67.9335938 1095.62598,71.0517578 1107.19043,77.2880859 C1118.75488,83.5244141 1127.83691,92.0009766 1134.43652,102.717773 C1141.03613,113.43457 1144.63867,125.574219 1145.24414,139.136719 L1113.09375,139.136719 C1112.48828,131.023438 1110.21777,123.636719 1106.28223,116.976562 C1102.34668,110.316406 1097.01855,105.018555 1090.29785,101.083008 C1083.57715,97.1474609 1075.73633,95.1796875 1066.77539,95.1796875 C1053.0918,95.1796875 1042.34473,98.6914062 1034.53418,105.714844 C1026.72363,112.738281 1021.21387,121.668945 1018.00488,132.506836 C1014.7959,143.344727 1013.19141,154.515625 1013.19141,166.019531 L1013.19141,173.648438 C1013.19141,185.152344 1014.76562,196.353516 1017.91406,207.251953 C1021.0625,218.150391 1026.54199,227.081055 1034.35254,234.043945 C1042.16309,241.006836 1052.9707,244.488281 1066.77539,244.488281 Z" id="Path"></path>
                <path d="M1265.49023,97.1777344 L1159.04883,97.1777344 L1159.04883,71.5664062 L1265.49023,71.5664062 L1265.49023,97.1777344 Z M1228.79883,23.7949219 L1228.79883,219.421875 C1228.79883,226.203125 1229.82812,231.289062 1231.88672,234.679688 C1233.94531,238.070312 1236.60938,240.310547 1239.87891,241.400391 C1243.14844,242.490234 1246.66016,243.035156 1250.41406,243.035156 C1253.19922,243.035156 1256.13574,242.792969 1259.22363,242.308594 C1262.31152,241.824219 1264.58203,241.400391 1266.03516,241.037109 L1266.2168,268.101562 C1263.55273,268.949219 1260.07129,269.766602 1255.77246,270.553711 C1251.47363,271.34082 1246.29688,271.734375 1240.24219,271.734375 C1232.00781,271.734375 1224.43945,270.099609 1217.53711,266.830078 C1210.63477,263.560547 1205.125,258.081055 1201.00781,250.391602 C1196.89062,242.702148 1194.83203,232.318359 1194.83203,219.240234 L1194.83203,23.7949219 L1228.79883,23.7949219 Z" id="Shape"></path>
            </g>
        </g>
    </g>
</svg>