<?xml version="1.0" encoding="UTF-8"?>
<svg width="841px" height="283px" viewBox="0 0 841 283" version="1.1" xmlns="http://www.w3.org/2000/svg" xmlns:xlink="http://www.w3.org/1999/xlink">
    <title>Skills</title>
    <g id="Icons" stroke="none" stroke-width="1" fill="none" fill-rule="evenodd" opacity="0.15">
        <g id="Skills" fill="#FFFFFF" fill-rule="nonzero">
            <g transform="translate(0.626953, 0.101562)">
                <path d="M156.755859,212.15625 C156.755859,203.800781 155,196.716797 151.488281,190.904297 C147.976562,185.091797 141.679688,179.824219 132.597656,175.101562 C123.515625,170.378906 110.619141,165.595703 93.9082031,160.751953 C80.8300781,156.998047 69.0537109,152.729492 58.5791016,147.946289 C48.1044922,143.163086 39.1132812,137.683594 31.6054687,131.507812 C24.0976562,125.332031 18.3457031,118.248047 14.3496094,110.255859 C10.3535156,102.263672 8.35546875,93.1210938 8.35546875,82.828125 C8.35546875,69.0234375 12.0791016,56.7021484 19.5263672,45.8642578 C26.9736328,35.0263672 37.4179688,26.4892578 50.859375,20.2529297 C64.3007812,14.0166016 80.0429688,10.8984375 98.0859375,10.8984375 C118.066406,10.8984375 135.019531,14.6826172 148.945312,22.2509766 C162.871094,29.8193359 173.466797,39.6884766 180.732422,51.8583984 C187.998047,64.0283203 191.630859,77.015625 191.630859,90.8203125 L156.210938,90.8203125 C156.210938,80.890625 154.12207,72.0507812 149.944336,64.3007812 C145.766602,56.5507812 139.378906,50.4658203 130.78125,46.0458984 C122.183594,41.6259766 111.285156,39.4160156 98.0859375,39.4160156 C85.734375,39.4160156 75.5322266,41.2929688 67.4794922,45.046875 C59.4267578,48.8007812 53.4628906,53.8867188 49.5878906,60.3046875 C45.7128906,66.7226562 43.7753906,74.0488281 43.7753906,82.2832031 C43.7753906,89.6699219 45.8945312,96.2392578 50.1328125,101.991211 C54.3710938,107.743164 61.03125,112.919922 70.1132812,117.521484 C79.1953125,122.123047 90.9414062,126.482422 105.351562,130.599609 C125.332031,136.169922 141.740234,142.648438 154.576172,150.035156 C167.412109,157.421875 176.887695,166.140625 183.00293,176.191406 C189.118164,186.242188 192.175781,198.109375 192.175781,211.792969 C192.175781,226.082031 188.361328,238.554688 180.732422,249.210938 C173.103516,259.867188 162.386719,268.101562 148.582031,273.914062 C134.777344,279.726562 118.550781,282.632812 99.9023438,282.632812 C87.671875,282.632812 75.6533203,280.9375 63.8466797,277.546875 C52.0400391,274.15625 41.3232422,269.070312 31.6962891,262.289062 C22.0693359,255.507812 14.3798828,247.12207 8.62792969,237.131836 C2.87597656,227.141602 0,215.546875 0,202.347656 L35.2382812,202.347656 C35.2382812,211.429688 36.9941406,219.240234 40.5058594,225.779297 C44.0175781,232.318359 48.8007812,237.707031 54.8554688,241.945312 C60.9101562,246.183594 67.8125,249.301758 75.5625,251.299805 C83.3125,253.297852 91.4257812,254.296875 99.9023438,254.296875 C112.132812,254.296875 122.456055,252.571289 130.87207,249.120117 C139.288086,245.668945 145.706055,240.794922 150.125977,234.498047 C154.545898,228.201172 156.755859,220.753906 156.755859,212.15625 Z" id="Path"></path>
                <path d="M265.740234,279 L231.773438,279 L231.773438,0 L265.740234,0 L265.740234,279 Z M300.251953,174.011719 L251.935547,223.78125 L249.210938,188.179688 L283.722656,147.310547 L344.390625,82.4648438 L385.623047,82.4648438 L300.251953,174.011719 Z M284.8125,185.091797 L302.431641,155.302734 L394.705078,279 L354.744141,279 L284.8125,185.091797 Z" id="Shape"></path>
                <path d="M457.189453,279 L423.222656,279 L423.222656,82.4648438 L457.189453,82.4648438 L457.189453,279 Z M420.679688,30.1523438 C420.679688,24.8242188 422.344727,20.2832031 425.674805,16.5292969 C429.004883,12.7753906 433.939453,10.8984375 440.478516,10.8984375 C447.017578,10.8984375 452.012695,12.7753906 455.463867,16.5292969 C458.915039,20.2832031 460.640625,24.8242188 460.640625,30.1523438 C460.640625,35.359375 458.915039,39.8095703 455.463867,43.5029297 C452.012695,47.1962891 447.017578,49.0429688 440.478516,49.0429688 C433.939453,49.0429688 429.004883,47.1962891 425.674805,43.5029297 C422.344727,39.8095703 420.679688,35.359375 420.679688,30.1523438 Z" id="Shape"></path>
                <polygon id="Path" points="547.646484 279 513.679688 279 513.679688 0 547.646484 0"></polygon>
                <polygon id="Path" points="638.103516 279 604.136719 279 604.136719 0 638.103516 0"></polygon>
                <path d="M806.121094,226.869141 C806.121094,222.025391 805.061523,217.514648 802.942383,213.336914 C800.823242,209.15918 796.554688,205.344727 790.136719,201.893555 C783.71875,198.442383 774.03125,195.384766 761.074219,192.720703 C746.542969,189.693359 733.979492,185.848633 723.383789,181.186523 C712.788086,176.524414 704.614258,170.560547 698.862305,163.294922 C693.110352,156.029297 690.234375,147.007812 690.234375,136.230469 C690.234375,125.816406 693.231445,116.280273 699.225586,107.62207 C705.219727,98.9638672 713.696289,92.0009766 724.655273,86.7333984 C735.614258,81.4658203 748.419922,78.8320312 763.072266,78.8320312 C778.814453,78.8320312 792.286133,81.5869141 803.487305,87.0966797 C814.688477,92.6064453 823.255859,99.9931641 829.189453,109.256836 C835.123047,118.520508 838.089844,128.783203 838.089844,140.044922 L804.123047,140.044922 C804.123047,131.931641 800.581055,124.242188 793.49707,116.976562 C786.413086,109.710938 776.271484,106.078125 763.072266,106.078125 C753.869141,106.078125 746.391602,107.500977 740.639648,110.34668 C734.887695,113.192383 730.709961,116.825195 728.106445,121.245117 C725.50293,125.665039 724.201172,130.296875 724.201172,135.140625 C724.201172,139.984375 725.412109,144.192383 727.833984,147.764648 C730.255859,151.336914 734.706055,154.515625 741.18457,157.300781 C747.663086,160.085938 757.078125,162.871094 769.429688,165.65625 C785.535156,169.289062 798.794922,173.648438 809.208984,178.734375 C819.623047,183.820312 827.373047,190.056641 832.458984,197.443359 C837.544922,204.830078 840.087891,213.851562 840.087891,224.507812 C840.087891,235.890625 836.939453,245.97168 830.642578,254.750977 C824.345703,263.530273 815.505859,270.37207 804.123047,275.276367 C792.740234,280.180664 779.359375,282.632812 763.980469,282.632812 C746.664062,282.632812 732.011719,279.544922 720.023438,273.369141 C708.035156,267.193359 698.953125,259.231445 692.777344,249.483398 C686.601562,239.735352 683.513672,229.412109 683.513672,218.513672 L717.480469,218.513672 C718.085938,227.716797 720.780273,235.012695 725.563477,240.401367 C730.34668,245.790039 736.219727,249.634766 743.182617,251.935547 C750.145508,254.236328 757.078125,255.386719 763.980469,255.386719 C773.183594,255.386719 780.90332,254.145508 787.139648,251.663086 C793.375977,249.180664 798.098633,245.790039 801.307617,241.491211 C804.516602,237.192383 806.121094,232.318359 806.121094,226.869141 Z" id="Path"></path>
            </g>
        </g>
    </g>
</svg>