<?xml version="1.0" encoding="UTF-8"?>
<svg width="1756px" height="679px" viewBox="0 0 1756 679" version="1.1" xmlns="http://www.w3.org/2000/svg" xmlns:xlink="http://www.w3.org/1999/xlink">
    <title>Web Developer</title>
    <g id="Page-1" stroke="none" stroke-width="1" fill="none" fill-rule="evenodd" opacity="0.15">
        <g id="Apple-TV" transform="translate(-108.000000, -382.000000)" fill="#FFFFFF" fill-rule="nonzero">
            <g id="Web-Developer" transform="translate(108.000000, 382.000000)">
                <path d="M137.152828,15 L165.511421,15 L162.905435,65.0970124 L106.782847,280 L77.192385,280 L84.8424908,223.83993 L137.152828,15 Z M89.2151992,222.563047 L92.2877594,280 L60.9448004,280 L0,15 L46.8138685,15 L89.2151992,222.563047 Z M266.197511,15 L313,15 L252.117789,280 L220.77483,280 L224.450522,221.931716 L266.197511,15 Z M228.595633,224.417228 L235.870204,280 L206.282588,280 L151.007799,64.9690397 L148.774503,15 L176.714886,15 L228.595633,224.417228 Z" id="Shape"></path>
                <path d="M428.783492,283 C409.229055,283 392.369086,278.791667 378.203584,270.375 C364.038083,261.958333 353.129444,250.566288 345.477666,236.198864 C337.825889,221.831439 334,205.713068 334,187.84375 L334,180.411932 C334,159.976326 337.890325,142.148674 345.670974,126.928977 C353.451624,111.70928 364.103941,99.9161932 377.627924,91.5497159 C391.151908,83.1832386 406.44883,79 423.51869,79 C442.483728,79 458.207064,83.1051136 470.688701,91.3153409 C483.170337,99.5255682 492.509296,110.873106 498.705578,125.357955 C504.901859,139.842803 508,156.557765 508,175.502841 L508,194.951705 L355.732943,194.951705 L355.732943,162.485795 L463.394164,162.485795 L463.394164,158.980114 C463.123154,151.321023 461.642547,144.162405 458.952343,137.504261 C456.262139,130.846117 452.041106,125.472064 446.289243,121.382102 C440.537381,117.29214 432.883708,115.247159 423.328225,115.247159 C413.736734,115.247159 405.660437,117.944129 399.099333,123.338068 C392.53823,128.732008 387.567655,136.294508 384.187606,146.025568 C380.807558,155.756629 379.117534,167.21875 379.117534,180.411932 L379.117534,187.84375 C379.117534,199.004735 381.187067,209.022727 385.326134,217.897727 C389.465201,226.772727 395.462962,233.790246 403.319419,238.950284 C411.175876,244.110322 420.569795,246.690341 431.501176,246.690341 C442.019409,246.690341 451.370213,244.629261 459.553588,240.507102 C467.736962,236.384943 474.815449,230.455492 480.789047,222.71875 L504.489184,246.346591 C498.267318,255.61553 488.943994,264.041667 476.519213,271.625 C464.094432,279.208333 448.182525,283 428.783492,283 Z" id="Path"></path>
                <path d="M587.085847,0 L587.085847,236.743664 L582.767878,279.362468 L542,279.362468 L542,0 L587.085847,0 Z M715,182.893979 C715,202.307412 712.126562,219.553009 706.379686,234.630769 C700.63281,249.708529 692.083989,261.539508 680.733222,270.123705 C669.382456,278.707902 655.330591,283 638.577629,283 C622.150408,283 608.596151,278.890252 597.914859,270.670755 C587.233567,262.451259 578.930472,251.079235 573.005575,236.554682 C567.080677,222.03013 563.019798,205.292273 560.822936,186.341109 L560.822936,175.68996 C563.019798,156.666804 567.069788,139.894844 572.972906,125.374081 C578.876024,110.853318 587.148817,99.4831884 597.791286,91.263692 C608.433754,83.0441955 621.907995,78.9344473 638.21401,78.9344473 C655.16772,78.9344473 669.330375,83.1815502 680.701974,91.6757561 C692.073573,100.169962 700.63281,111.943631 706.379686,126.996762 C712.126562,142.049893 715,159.409162 715,179.07457 L715,182.893979 Z M669.914153,179.07457 C669.914153,167.603082 668.619709,157.064659 666.030822,147.459301 C663.441934,137.853942 659.039689,130.172971 652.824086,124.416387 C646.608483,118.659803 637.949819,115.781511 626.848093,115.781511 C619.297328,115.781511 612.774449,117.054647 607.279455,119.60092 C601.78446,122.147192 597.197091,125.683366 593.517348,130.209441 C589.837605,134.735516 586.954698,140.035514 584.868627,146.109435 C582.782555,152.183356 581.372113,158.72523 580.637301,165.735058 L580.637301,196.531883 C581.722475,205.659815 583.987515,213.984459 587.432421,221.505814 C590.877327,229.02717 595.845832,235.017257 602.337937,239.476075 C608.830041,243.934894 617.121299,246.164304 627.211711,246.164304 C638.006634,246.164304 646.501007,243.369372 652.694831,237.779508 C658.888654,232.189644 663.306997,224.61903 665.94986,215.067666 C668.592722,205.516303 669.914153,194.79174 669.914153,182.893979 L669.914153,179.07457 Z" id="Shape"></path>
                <path d="M131.775307,604 L132.13874,566.239548 L188.104582,566.239548 C204.320886,566.239548 217.895676,562.725514 228.828952,555.697448 C239.762228,548.669382 248.013766,538.596989 253.583566,525.48027 C259.153366,512.363551 261.938266,496.632873 261.938266,478.288236 L261.938266,464.410317 C261.938266,445.559477 259.163777,429.645372 253.614799,416.668001 C248.065821,403.69063 239.910346,393.825363 229.148376,387.072201 C218.386406,380.319039 205.243665,376.942458 189.720155,376.942458 L130.685008,376.942458 L130.685008,339 L189.720155,339 C213.322478,339 234.068445,344.204694 251.958055,354.614081 C269.847666,365.023468 283.82706,379.647894 293.896236,398.487358 C303.965412,417.326823 309,439.42248 309,464.774328 L309,478.288236 C309,503.676107 303.965412,525.780769 293.896236,544.602222 C283.82706,563.423676 269.742138,578.028669 251.641471,588.417201 C233.540804,598.805734 212.361841,604 188.104582,604 L131.775307,604 Z M157.91125,604 L111,604 L111,339 L157.91125,339 L157.91125,604 Z" id="Shape"></path>
                <path d="M436.783492,607 C417.229055,607 400.369086,602.791667 386.203584,594.375 C372.038083,585.958333 361.129444,574.566288 353.477666,560.198864 C345.825889,545.831439 342,529.713068 342,511.84375 L342,504.411932 C342,483.976326 345.890325,466.148674 353.670974,450.928977 C361.451624,435.70928 372.103941,423.916193 385.627924,415.549716 C399.151908,407.183239 414.44883,403 431.51869,403 C450.483728,403 466.207064,407.105114 478.688701,415.315341 C491.170337,423.525568 500.509296,434.873106 506.705578,449.357955 C512.901859,463.842803 516,480.557765 516,499.502841 L516,518.951705 L363.732943,518.951705 L363.732943,486.485795 L471.394164,486.485795 L471.394164,482.980114 C471.123154,475.321023 469.642547,468.162405 466.952343,461.504261 C464.262139,454.846117 460.041106,449.472064 454.289243,445.382102 C448.537381,441.29214 440.883708,439.247159 431.328225,439.247159 C421.736734,439.247159 413.660437,441.944129 407.099333,447.338068 C400.53823,452.732008 395.567655,460.294508 392.187606,470.025568 C388.807558,479.756629 387.117534,491.21875 387.117534,504.411932 L387.117534,511.84375 C387.117534,523.004735 389.187067,533.022727 393.326134,541.897727 C397.465201,550.772727 403.462962,557.790246 411.319419,562.950284 C419.175876,568.110322 428.569795,570.690341 439.501176,570.690341 C450.019409,570.690341 459.370213,568.629261 467.553588,564.507102 C475.736962,560.384943 482.815449,554.455492 488.789047,546.71875 L512.489184,570.346591 C506.267318,579.61553 496.943994,588.041667 484.519213,595.625 C472.094432,603.208333 456.182525,607 436.783492,607 Z" id="Path"></path>
                <path d="M659.152414,407 L706,407 L637.916511,604 L608.683003,604 L611.715891,568.257336 L659.152414,407 Z M624.33111,568.780788 L626.66979,604 L597.552932,604 L529,407 L575.975616,407 L624.33111,568.780788 Z" id="Shape"></path>
                <path d="M819.783492,607 C800.229055,607 783.369086,602.791667 769.203584,594.375 C755.038083,585.958333 744.129444,574.566288 736.477666,560.198864 C728.825889,545.831439 725,529.713068 725,511.84375 L725,504.411932 C725,483.976326 728.890325,466.148674 736.670974,450.928977 C744.451624,435.70928 755.103941,423.916193 768.627924,415.549716 C782.151908,407.183239 797.44883,403 814.51869,403 C833.483728,403 849.207064,407.105114 861.688701,415.315341 C874.170337,423.525568 883.509296,434.873106 889.705578,449.357955 C895.901859,463.842803 899,480.557765 899,499.502841 L899,518.951705 L746.732943,518.951705 L746.732943,486.485795 L854.394164,486.485795 L854.394164,482.980114 C854.123154,475.321023 852.642547,468.162405 849.952343,461.504261 C847.262139,454.846117 843.041106,449.472064 837.289243,445.382102 C831.537381,441.29214 823.883708,439.247159 814.328225,439.247159 C804.736734,439.247159 796.660437,441.944129 790.099333,447.338068 C783.53823,452.732008 778.567655,460.294508 775.187606,470.025568 C771.807558,479.756629 770.117534,491.21875 770.117534,504.411932 L770.117534,511.84375 C770.117534,523.004735 772.187067,533.022727 776.326134,541.897727 C780.465201,550.772727 786.462962,557.790246 794.319419,562.950284 C802.175876,568.110322 811.569795,570.690341 822.501176,570.690341 C833.019409,570.690341 842.370213,568.629261 850.553588,564.507102 C858.736962,560.384943 865.815449,554.455492 871.789047,546.71875 L895.489184,570.346591 C889.267318,579.61553 879.943994,588.041667 867.519213,595.625 C855.094432,603.208333 839.182525,607 819.783492,607 Z" id="Path"></path>
                <polygon id="Path" points="981 604 936 604 936 324 981 324"></polygon>
                <path d="M1020,503.127841 C1020,484.012311 1023.64853,466.928504 1030.94559,451.87642 C1038.24266,436.824337 1048.73028,424.915246 1062.40848,416.149148 C1076.08667,407.383049 1092.53642,403 1111.75771,403 C1131.22225,403 1147.84397,407.383049 1161.62288,416.149148 C1175.40178,424.915246 1185.90937,436.824337 1193.14562,451.87642 C1200.38187,466.928504 1204,484.012311 1204,503.127841 L1204,507.053977 C1204,526.048295 1200.38187,543.101799 1193.14562,558.214489 C1185.90937,573.327178 1175.43219,585.236269 1161.71409,593.941761 C1147.99599,602.647254 1131.46549,607 1112.12257,607 C1092.77965,607 1076.23869,602.647254 1062.49969,593.941761 C1048.76069,585.236269 1038.24266,573.327178 1030.94559,558.214489 C1023.64853,543.101799 1020,526.048295 1020,507.053977 L1020,503.127841 Z M1065.3045,507.053977 C1065.3045,518.612689 1066.93256,529.234375 1070.18869,538.919034 C1073.44481,548.603693 1078.50192,556.330492 1085.36002,562.099432 C1092.21812,567.868371 1101.13897,570.752841 1112.12257,570.752841 C1122.98455,570.752841 1131.84459,567.868371 1138.70269,562.099432 C1145.56079,556.330492 1150.6179,548.603693 1153.87402,538.919034 C1157.13015,529.234375 1158.75821,518.612689 1158.75821,507.053977 L1158.75821,503.127841 C1158.75821,491.654356 1157.13015,481.075284 1153.87402,471.390625 C1150.6179,461.705966 1145.54084,453.927557 1138.64283,448.055398 C1131.74483,442.183239 1122.78312,439.247159 1111.75771,439.247159 C1100.97554,439.247159 1092.14591,442.183239 1085.26881,448.055398 C1078.3917,453.927557 1073.34504,461.705966 1070.12883,471.390625 C1066.91261,481.075284 1065.3045,491.654356 1065.3045,503.127841 L1065.3045,507.053977 Z" id="Shape"></path>
                <path d="M1286.14738,679 L1241,679 L1241,406.636364 L1282.60295,406.636364 L1286.14738,444.454545 L1286.14738,679 Z M1414,506.860795 C1414,525.970644 1411.04773,543.072443 1405.14319,558.166193 C1399.23866,573.259943 1390.61227,585.172348 1379.26403,593.903409 C1367.91578,602.63447 1354.02443,607 1337.58996,607 C1321.10429,607 1307.43529,602.95786 1296.58296,594.87358 C1285.73064,586.789299 1277.26971,575.65483 1271.20019,561.47017 C1265.13066,547.285511 1260.97511,531.105114 1258.73352,512.928977 L1258.73352,500.042614 C1260.93338,480.72822 1265.08752,463.802083 1271.19592,449.264205 C1277.30432,434.726326 1285.76525,423.381155 1296.5787,415.228693 C1307.39214,407.076231 1320.92318,403 1337.1718,403 C1353.76367,403 1367.76407,407.170928 1379.173,415.512784 C1390.58192,423.85464 1399.23866,435.539299 1405.14319,450.566761 C1411.04773,465.594223 1414,483.086174 1414,503.042614 L1414,506.860795 Z M1368.85262,503.042614 C1368.85262,491.277462 1367.35491,480.615057 1364.3595,471.055398 C1361.36409,461.495739 1356.61495,453.902462 1350.11209,448.275568 C1343.60923,442.648674 1335.14925,439.835227 1324.73216,439.835227 C1317.16919,439.835227 1310.66728,441.086648 1305.22642,443.589489 C1299.78556,446.09233 1295.22275,449.584754 1291.53798,454.066761 C1287.85322,458.548769 1284.96638,463.857481 1282.87746,469.992898 C1280.78854,476.128314 1279.35436,482.828598 1278.57493,490.09375 L1278.57493,522.997159 C1279.97639,531.739583 1282.38202,539.731061 1285.7918,546.971591 C1289.20158,554.212121 1294.07873,559.985795 1300.42324,564.292614 C1306.76774,568.599432 1314.99209,570.752841 1325.09627,570.752841 C1335.52095,570.752841 1343.94348,567.836174 1350.36384,562.002841 C1356.78421,556.169508 1361.47076,548.419508 1364.42351,538.752841 C1367.37625,529.086174 1368.85262,518.455492 1368.85262,506.860795 L1368.85262,503.042614 Z" id="Shape"></path>
                <path d="M1537.78349,607 C1518.22906,607 1501.36909,602.791667 1487.20358,594.375 C1473.03808,585.958333 1462.12944,574.566288 1454.47767,560.198864 C1446.82589,545.831439 1443,529.713068 1443,511.84375 L1443,504.411932 C1443,483.976326 1446.89032,466.148674 1454.67097,450.928977 C1462.45162,435.70928 1473.10394,423.916193 1486.62792,415.549716 C1500.15191,407.183239 1515.44883,403 1532.51869,403 C1551.48373,403 1567.20706,407.105114 1579.6887,415.315341 C1592.17034,423.525568 1601.5093,434.873106 1607.70558,449.357955 C1613.90186,463.842803 1617,480.557765 1617,499.502841 L1617,518.951705 L1464.73294,518.951705 L1464.73294,486.485795 L1572.39416,486.485795 L1572.39416,482.980114 C1572.12315,475.321023 1570.64255,468.162405 1567.95234,461.504261 C1565.26214,454.846117 1561.04111,449.472064 1555.28924,445.382102 C1549.53738,441.29214 1541.88371,439.247159 1532.32823,439.247159 C1522.73673,439.247159 1514.66044,441.944129 1508.09933,447.338068 C1501.53823,452.732008 1496.56765,460.294508 1493.18761,470.025568 C1489.80756,479.756629 1488.11753,491.21875 1488.11753,504.411932 L1488.11753,511.84375 C1488.11753,523.004735 1490.18707,533.022727 1494.32613,541.897727 C1498.4652,550.772727 1504.46296,557.790246 1512.31942,562.950284 C1520.17588,568.110322 1529.56979,570.690341 1540.50118,570.690341 C1551.01941,570.690341 1560.37021,568.629261 1568.55359,564.507102 C1576.73696,560.384943 1583.81545,554.455492 1589.78905,546.71875 L1613.48918,570.346591 C1607.26732,579.61553 1597.94399,588.041667 1585.51921,595.625 C1573.09443,603.208333 1557.18253,607 1537.78349,607 Z" id="Path"></path>
                <path d="M1696.192,604 L1651,604 L1651,406.647913 L1694.0621,406.647913 L1696.192,445.30724 L1696.192,604 Z M1755.61559,448.254069 C1752.82888,447.773381 1749.86895,447.410014 1746.7358,447.16397 C1743.60264,446.917926 1740.5421,446.794904 1737.55417,446.794904 C1727.61275,446.794904 1719.3238,448.590361 1712.68732,452.181276 C1706.05085,455.77219 1701.02461,460.867393 1697.60861,467.466885 C1694.19261,474.066378 1692.19132,481.911766 1691.60475,491.003048 L1681.30264,491.074297 C1681.30264,474.459194 1683.47146,459.51225 1687.80908,446.233468 C1692.14671,432.954685 1698.69159,422.429411 1707.44373,414.657647 C1716.19586,406.885882 1727.12203,403 1740.22224,403 C1742.78685,403 1745.65756,403.230844 1748.83437,403.692533 C1752.01119,404.154222 1754.39973,404.731809 1756,405.425292 L1755.61559,448.254069 Z" id="Shape"></path>
            </g>
        </g>
    </g>
</svg>