<?xml version="1.0" encoding="UTF-8"?>
<svg width="842px" height="283px" viewBox="0 0 842 283" version="1.1" xmlns="http://www.w3.org/2000/svg" xmlns:xlink="http://www.w3.org/1999/xlink">
    <title>Work</title>
    <g id="Icons" stroke="none" stroke-width="1" fill="none" fill-rule="evenodd" opacity="0.15">
        <g id="Work" transform="translate(1.000000, 0.000000)" fill="#FFFFFF" fill-rule="nonzero">
            <g transform="translate(-0.005859, 0.101562)" id="Shape">
                <path d="M141.498047,14.53125 L167.291016,14.53125 L152.396484,85.9160156 L96.0878906,279 L70.4765625,279 L89.1855469,199.259766 L141.498047,14.53125 Z M76.8339844,195.808594 L89.1855469,279 L63.9375,279 L0,14.53125 L35.2382812,14.53125 L76.8339844,195.808594 Z M275.548828,14.53125 L310.96875,14.53125 L247.03125,279 L221.783203,279 L234.861328,195.626953 L275.548828,14.53125 Z M221.964844,199.259766 L240.492188,279 L214.880859,279 L160.570312,85.9160156 L145.857422,14.53125 L171.105469,14.53125 L221.964844,199.259766 Z"></path>
                <path d="M330.041016,178.734375 C330.041016,159.722656 333.673828,142.708984 340.939453,127.693359 C348.205078,112.677734 358.498047,100.780273 371.818359,92.0009766 C385.138672,83.2216797 400.941406,78.8320312 419.226562,78.8320312 C437.753906,78.8320312 453.738281,83.2216797 467.179688,92.0009766 C480.621094,100.780273 490.944336,112.677734 498.149414,127.693359 C505.354492,142.708984 508.957031,159.722656 508.957031,178.734375 L508.957031,182.912109 C508.957031,201.802734 505.354492,218.786133 498.149414,233.862305 C490.944336,248.938477 480.651367,260.835938 467.270508,269.554688 C453.889648,278.273438 437.996094,282.632812 419.589844,282.632812 C401.183594,282.632812 385.290039,278.273438 371.90918,269.554688 C358.52832,260.835938 348.205078,248.938477 340.939453,233.862305 C333.673828,218.786133 330.041016,201.802734 330.041016,182.912109 L330.041016,178.734375 Z M364.007812,182.912109 C364.007812,195.869141 366.066406,207.857422 370.183594,218.876953 C374.300781,229.896484 380.446289,238.736328 388.620117,245.396484 C396.793945,252.056641 407.117188,255.386719 419.589844,255.386719 C431.941406,255.386719 442.204102,252.056641 450.37793,245.396484 C458.551758,238.736328 464.697266,229.896484 468.814453,218.876953 C472.931641,207.857422 474.990234,195.869141 474.990234,182.912109 L474.990234,178.734375 C474.990234,165.777344 472.931641,153.789062 468.814453,142.769531 C464.697266,131.75 458.521484,122.879883 450.287109,116.15918 C442.052734,109.438477 431.699219,106.078125 419.226562,106.078125 C406.996094,106.078125 396.763672,109.438477 388.529297,116.15918 C380.294922,122.879883 374.149414,131.75 370.092773,142.769531 C366.036133,153.789062 364.007812,165.777344 364.007812,178.734375 L364.007812,182.912109 Z"></path>
                <path d="M585.064453,279 L551.097656,279 L551.097656,82.4648438 L584.15625,82.4648438 L585.064453,113.34375 L585.064453,279 Z M646.277344,112.435547 C643.371094,111.830078 640.676758,111.436523 638.194336,111.254883 C635.711914,111.073242 632.896484,110.982422 629.748047,110.982422 C619.455078,110.982422 610.766602,113.101562 603.682617,117.339844 C596.598633,121.578125 591.119141,127.420898 587.244141,134.868164 C583.369141,142.31543 580.947266,150.822266 579.978516,160.388672 L570.351562,165.837891 C570.351562,149.974609 572.470703,135.473633 576.708984,122.334961 C580.947266,109.196289 587.577148,98.6611328 596.598633,90.7294922 C605.620117,82.7978516 617.214844,78.8320312 631.382812,78.8320312 C633.683594,78.8320312 636.438477,79.1044922 639.647461,79.6494141 C642.856445,80.1943359 645.066406,80.7695312 646.277344,81.375 L646.277344,112.435547 Z"></path>
                <path d="M711.304688,279 L677.337891,279 L677.337891,0 L711.304688,0 L711.304688,279 Z M745.816406,174.011719 L697.5,223.78125 L694.775391,188.179688 L729.287109,147.310547 L789.955078,82.4648438 L831.1875,82.4648438 L745.816406,174.011719 Z M730.376953,185.091797 L747.996094,155.302734 L840.269531,279 L800.308594,279 L730.376953,185.091797 Z"></path>
            </g>
        </g>
    </g>
</svg>